{"glyphs":{"0":{"ha":893,"x_min":0,"x_max":0,"o":"m 446 989 b 838 486 732 989 838 743 b 446 -18 838 228 732 -18 b 56 486 161 -18 56 228 b 446 989 56 743 161 989 m 446 161 b 650 486 604 161 650 328 b 446 810 650 643 604 810 b 243 486 289 810 243 643 b 446 161 243 328 289 161 "},"1":{"ha":621,"x_min":0,"x_max":0,"o":"m 475 972 l 475 0 l 286 0 l 286 753 l 115 638 l 35 769 l 335 972 "},"2":{"ha":771,"x_min":0,"x_max":0,"o":"m 694 175 l 694 0 l 75 0 l 75 138 b 310 403 167 239 219 300 b 492 692 394 501 492 607 b 372 818 492 761 450 818 b 239 699 286 818 250 756 l 63 739 b 388 989 97 900 224 989 b 681 699 567 989 681 851 b 336 175 681 563 561 431 "},"3":{"ha":790,"x_min":0,"x_max":0,"o":"m 569 503 b 735 275 675 467 735 393 b 390 -18 735 113 610 -18 b 42 206 211 -18 67 75 l 222 247 b 390 153 232 204 279 153 b 543 294 499 153 543 219 b 372 418 543 404 440 418 l 290 418 l 290 578 l 372 578 b 531 699 446 578 531 603 b 393 821 531 778 478 821 b 253 728 310 821 268 775 l 81 768 b 393 989 119 899 240 989 b 711 722 593 989 711 874 b 569 503 711 624 665 546 "},"4":{"ha":883,"x_min":0,"x_max":0,"o":"m 821 193 l 706 193 l 706 0 l 517 0 l 517 193 l 63 193 l 63 342 l 457 972 l 706 972 l 706 354 l 821 354 m 517 354 l 517 775 l 254 354 "},"5":{"ha":792,"x_min":0,"x_max":0,"o":"m 426 628 b 736 322 613 628 736 501 b 390 -18 736 142 613 -18 b 56 206 226 -18 79 79 l 238 247 b 390 153 249 204 292 153 b 551 319 504 153 551 235 b 392 474 551 411 489 474 b 233 406 319 474 258 435 l 89 447 l 150 972 l 675 972 l 675 797 l 293 797 l 268 583 b 426 628 314 610 369 628 "},"6":{"ha":819,"x_min":0,"x_max":0,"o":"m 410 654 b 764 324 608 654 764 532 b 410 -18 764 132 618 -18 b 56 324 201 -18 56 132 b 164 610 56 460 128 557 l 410 972 l 615 972 l 385 653 b 410 654 392 654 400 654 m 410 156 b 578 324 496 156 578 217 b 410 493 578 419 510 493 b 240 324 317 493 240 428 b 410 156 240 217 324 156 "},"7":{"ha":732,"x_min":0,"x_max":0,"o":"m 669 972 l 669 817 l 325 0 l 136 0 l 471 797 l 63 797 l 63 972 "},"8":{"ha":839,"x_min":0,"x_max":0,"o":"m 631 521 b 783 288 722 474 783 393 b 419 -18 783 104 629 -18 b 56 288 210 -18 56 104 b 208 521 56 393 115 474 b 92 722 132 568 92 642 b 419 989 92 865 211 989 b 746 722 628 989 746 865 b 631 521 746 642 707 568 m 419 829 b 275 701 347 829 275 786 b 419 578 275 619 340 578 b 564 701 497 578 564 619 b 419 829 564 786 492 829 m 419 156 b 588 297 536 156 588 225 b 419 442 588 381 522 442 b 250 297 315 442 250 381 b 419 156 250 225 301 156 "},"9":{"ha":819,"x_min":0,"x_max":0,"o":"m 410 318 b 56 647 211 318 56 439 b 410 989 56 840 201 989 b 764 647 618 989 764 840 b 656 361 764 513 692 414 l 410 0 l 204 0 l 435 318 b 410 318 428 318 419 318 m 410 817 b 242 647 324 817 242 754 b 410 479 242 553 310 479 b 579 647 503 479 579 544 b 410 817 579 754 496 817 "},"B":{"ha":850,"x_min":0,"x_max":0,"o":"m 656 511 b 801 281 750 468 801 389 b 456 0 801 108 681 0 l 90 0 l 90 972 l 419 972 b 763 711 642 972 763 867 b 656 514 763 621 725 556 l 656 511 m 279 810 l 279 568 l 419 568 b 574 692 507 568 574 601 b 419 810 574 781 501 810 m 456 163 b 610 293 546 163 610 207 b 456 418 610 383 540 418 l 279 418 l 279 163 l 456 163 "},"C":{"ha":964,"x_min":0,"x_max":0,"o":"m 550 161 b 781 265 651 161 729 203 l 936 163 b 550 -18 849 51 713 -18 b 56 486 263 -18 56 201 b 550 989 56 771 263 989 b 936 808 713 989 849 921 l 781 706 b 550 810 729 768 651 810 b 244 486 349 810 244 647 b 550 161 244 324 349 161 "},"D":{"ha":965,"x_min":0,"x_max":0,"o":"m 393 972 b 910 486 717 972 910 772 b 393 0 910 200 717 0 l 90 0 l 90 972 l 393 972 m 393 175 b 721 486 569 175 721 269 b 393 797 721 703 569 797 l 279 797 l 279 175 l 393 175 "},"E":{"ha":726,"x_min":0,"x_max":0,"o":"m 664 175 l 664 0 l 90 0 l 90 972 l 651 972 l 651 797 l 278 797 l 278 578 l 619 578 l 619 403 l 278 403 l 278 175 "},"F":{"ha":722,"x_min":0,"x_max":0,"o":"m 279 797 l 279 557 l 619 557 l 619 382 l 279 382 l 279 0 l 90 0 l 90 972 l 660 972 l 660 797 "},"G":{"ha":1072,"x_min":0,"x_max":0,"o":"m 996 550 l 996 0 l 894 0 l 869 139 b 550 -18 804 44 701 -18 b 56 486 261 -18 56 201 b 550 989 56 771 261 989 b 935 810 711 989 847 921 l 779 706 b 550 810 728 768 651 810 b 244 486 349 810 244 647 b 550 163 244 324 349 163 b 839 386 719 163 811 261 l 563 386 l 563 550 "},"H":{"ha":961,"x_min":0,"x_max":0,"o":"m 871 972 l 871 0 l 682 0 l 682 403 l 279 403 l 279 0 l 90 0 l 90 972 l 279 972 l 279 578 l 682 578 l 682 972 "},"I":{"ha":368,"x_min":0,"x_max":0,"o":"m 278 972 l 278 0 l 90 0 l 90 972 "},"J":{"ha":807,"x_min":0,"x_max":0,"o":"m 717 972 l 717 338 b 374 -18 717 131 622 -18 b 28 264 168 -18 40 106 l 218 299 b 374 161 222 246 258 161 b 528 338 496 161 528 240 l 528 972 "},"K":{"ha":885,"x_min":0,"x_max":0,"o":"m 636 0 l 278 451 l 278 0 l 90 0 l 90 972 l 278 972 l 278 508 l 613 972 l 828 972 l 465 493 l 864 0 "},"L":{"ha":701,"x_min":0,"x_max":0,"o":"m 653 175 l 653 0 l 90 0 l 90 972 l 278 972 l 278 175 "},"M":{"ha":1201,"x_min":0,"x_max":0,"o":"m 1111 972 l 1111 0 l 922 0 l 922 644 l 632 174 l 569 174 l 278 644 l 278 0 l 90 0 l 90 972 l 290 972 l 600 472 l 910 972 "},"N":{"ha":971,"x_min":0,"x_max":0,"o":"m 881 972 l 881 0 l 710 0 l 279 643 l 279 0 l 90 0 l 90 972 l 261 972 l 692 329 l 692 972 "},"O":{"ha":1100,"x_min":0,"x_max":0,"o":"m 550 989 b 1044 486 838 989 1044 771 b 550 -18 1044 201 838 -18 b 56 486 263 -18 56 201 b 550 989 56 771 263 989 m 550 161 b 856 486 751 161 856 324 b 550 810 856 647 751 810 b 244 486 349 810 244 647 b 550 161 244 324 349 161 "},"P":{"ha":838,"x_min":0,"x_max":0,"o":"m 415 972 b 789 636 647 972 789 838 b 415 301 789 435 647 301 l 279 301 l 279 0 l 90 0 l 90 972 l 415 972 m 415 476 b 597 636 531 476 597 535 b 415 797 597 739 531 797 l 279 797 l 279 476 l 415 476 "},"Q":{"ha":1099,"x_min":0,"x_max":0,"o":"m 1043 486 b 932 157 1043 358 1003 244 l 1025 64 l 911 -49 l 811 53 b 550 -18 736 8 649 -18 b 56 486 263 -18 56 201 b 550 989 56 771 263 989 b 1043 486 838 989 1043 771 m 550 161 b 676 188 597 161 640 171 l 544 321 l 658 433 l 799 292 b 856 486 836 347 856 417 b 550 810 856 647 750 810 b 244 486 349 810 244 647 b 550 161 244 324 349 161 "},"R":{"ha":878,"x_min":0,"x_max":0,"o":"m 642 0 l 442 350 b 426 350 438 350 432 350 l 278 350 l 278 0 l 90 0 l 90 972 l 426 972 b 789 654 644 972 789 839 b 618 389 789 532 724 438 l 857 0 m 278 513 l 426 513 b 596 654 524 513 596 557 b 426 797 596 742 532 797 l 278 797 "},"S":{"ha":824,"x_min":0,"x_max":0,"o":"m 475 558 b 789 282 706 506 789 439 b 426 -18 789 131 681 -18 b 35 218 244 -18 82 57 l 217 275 b 425 147 231 219 289 147 b 600 268 522 147 600 185 b 336 410 600 365 490 372 b 75 692 140 458 75 557 b 418 989 75 875 215 989 b 750 760 581 989 708 908 l 567 715 b 408 824 556 767 506 824 b 261 704 328 824 261 782 b 475 558 261 594 385 579 "},"T":{"ha":753,"x_min":0,"x_max":0,"o":"m 704 797 l 471 797 l 471 0 l 282 0 l 282 797 l 49 797 l 49 972 l 704 972 "},"U":{"ha":968,"x_min":0,"x_max":0,"o":"m 878 972 l 878 358 b 485 -18 878 129 739 -18 b 90 358 231 -18 90 129 l 90 972 l 279 972 l 279 383 b 485 161 279 221 378 161 b 689 383 590 161 689 221 l 689 972 "},"V":{"ha":972,"x_min":0,"x_max":0,"o":"m 951 972 l 601 0 l 369 0 l 21 972 l 219 972 l 486 190 l 751 972 "},"W":{"ha":1383,"x_min":0,"x_max":0,"o":"m 1363 972 l 1050 0 l 881 0 l 692 639 l 503 0 l 333 0 l 21 972 l 221 972 l 424 306 l 619 972 l 764 972 l 960 304 l 1163 972 "},"X":{"ha":906,"x_min":0,"x_max":0,"o":"m 665 0 l 451 335 l 239 0 l 21 0 l 336 494 l 44 972 l 264 972 l 453 650 l 642 972 l 860 972 l 568 496 l 885 0 "},"Y":{"ha":956,"x_min":0,"x_max":0,"o":"m 572 364 l 572 0 l 383 0 l 383 364 l 21 972 l 228 972 l 478 532 l 729 972 l 935 972 "},"Z":{"ha":808,"x_min":0,"x_max":0,"o":"m 760 175 l 760 0 l 49 0 l 49 150 l 517 797 l 74 797 l 74 972 l 747 972 l 747 822 l 292 175 "},"a":{"ha":757,"x_min":0,"x_max":0,"o":"m 376 721 b 674 425 600 721 674 593 l 674 0 l 497 0 l 497 75 b 292 -18 464 21 386 -18 b 42 189 186 -18 42 39 b 421 421 42 421 328 421 b 497 421 449 421 481 421 b 351 567 496 522 460 567 b 204 515 288 567 231 533 l 83 607 b 376 721 161 678 258 721 m 497 310 b 486 310 493 310 489 310 b 222 206 360 310 222 311 b 344 110 222 153 257 110 b 497 190 435 110 482 161 "},"b":{"ha":869,"x_min":0,"x_max":0,"o":"m 485 721 b 828 351 703 721 828 536 b 485 -18 828 167 703 -18 b 260 82 375 -18 304 25 l 260 0 l 83 0 l 83 972 l 260 972 l 260 621 b 485 721 304 679 375 721 m 457 151 b 647 351 578 151 647 243 b 457 551 647 460 578 551 b 267 351 336 551 267 460 b 457 151 267 243 336 151 "},"c":{"ha":751,"x_min":0,"x_max":0,"o":"m 414 151 b 576 242 489 151 544 188 l 731 154 b 414 -18 665 50 550 -18 b 42 351 203 -18 42 146 b 414 721 42 558 203 721 b 731 550 550 721 665 653 l 576 461 b 414 551 544 515 489 551 b 222 351 296 551 222 461 b 414 151 222 242 296 151 "},"d":{"ha":869,"x_min":0,"x_max":0,"o":"m 786 972 l 786 0 l 610 0 l 610 82 b 385 -18 564 25 494 -18 b 42 351 167 -18 42 167 b 385 721 42 536 167 721 b 610 621 494 721 564 679 l 610 972 m 413 151 b 601 351 533 151 601 243 b 413 551 601 460 533 551 b 222 351 292 551 222 460 b 413 151 222 243 292 151 "},"e":{"ha":797,"x_min":0,"x_max":0,"o":"m 401 721 b 751 283 614 721 783 561 l 229 283 b 429 139 254 189 332 139 b 586 208 510 139 565 182 l 728 125 b 429 -18 671 46 563 -18 b 42 351 196 -18 42 138 b 401 721 42 572 207 721 m 579 419 b 404 564 561 511 499 564 b 229 419 318 564 250 510 "},"f":{"ha":517,"x_min":0,"x_max":0,"o":"m 444 839 b 324 704 354 839 324 790 b 475 704 324 704 324 704 l 475 543 l 324 543 l 324 0 l 147 0 l 147 543 l 49 543 l 49 704 l 147 704 b 401 990 147 849 211 990 b 475 985 436 990 451 989 l 475 838 b 444 839 465 838 456 839 "},"g":{"ha":865,"x_min":0,"x_max":0,"o":"m 782 704 l 782 76 b 400 -281 782 -121 650 -281 b 67 -139 256 -281 125 -221 l 210 -54 b 394 -124 236 -89 300 -124 b 606 89 531 -124 606 -49 l 606 140 b 383 32 563 79 493 32 b 42 376 171 32 42 194 b 383 721 42 558 171 721 b 606 613 493 721 563 674 l 606 704 m 410 189 b 597 376 528 189 597 274 b 410 564 597 479 528 564 b 222 376 296 564 222 482 b 410 189 222 271 296 189 "},"h":{"ha":806,"x_min":0,"x_max":0,"o":"m 464 721 b 722 428 642 721 722 576 l 722 0 l 546 0 l 546 392 b 408 550 546 482 508 550 b 258 392 304 550 258 472 l 258 0 l 83 0 l 83 972 l 258 972 l 258 618 b 464 721 297 675 361 721 "},"i":{"ha":343,"x_min":0,"x_max":0,"o":"m 83 704 l 260 704 l 260 0 l 83 0 m 171 807 b 78 901 119 807 78 849 b 171 994 78 953 119 994 b 265 901 224 994 265 953 b 171 807 265 849 224 807 "},"j":{"ha":343,"x_min":0,"x_max":0,"o":"m 83 704 l 258 704 l 258 13 b 3 -257 258 -144 179 -257 b -58 -251 -18 -257 -42 -254 l -58 -90 b -37 -92 -53 -90 -46 -92 b 83 36 42 -92 83 -56 m 171 807 b 76 901 119 807 76 849 b 171 994 76 953 119 994 b 265 901 222 994 265 953 b 171 807 265 849 222 807 "},"k":{"ha":744,"x_min":0,"x_max":0,"o":"m 508 0 l 258 335 l 258 0 l 83 0 l 83 972 l 258 972 l 258 406 l 478 704 l 681 704 l 429 379 l 724 0 "},"l":{"ha":343,"x_min":0,"x_max":0,"o":"m 260 972 l 260 0 l 83 0 l 83 972 "},"m":{"ha":1182,"x_min":0,"x_max":0,"o":"m 853 721 b 1099 440 1015 721 1099 589 l 1099 0 l 922 0 l 922 404 b 804 550 922 492 886 550 b 679 404 722 550 679 485 l 679 0 l 503 0 l 503 404 b 385 550 503 492 467 550 b 260 404 303 550 260 485 l 260 0 l 83 0 l 83 704 l 260 704 l 260 629 b 446 721 296 681 353 721 b 640 610 542 721 604 676 b 853 721 683 672 753 721 "},"n":{"ha":806,"x_min":0,"x_max":0,"o":"m 464 721 b 722 428 642 721 722 576 l 722 0 l 546 0 l 546 392 b 408 550 546 482 508 550 b 258 392 304 550 258 472 l 258 0 l 83 0 l 83 704 l 258 704 l 258 618 b 464 721 297 675 361 721 "},"o":{"ha":826,"x_min":0,"x_max":0,"o":"m 413 721 b 785 351 625 721 785 558 b 413 -18 785 146 625 -18 b 42 351 201 -18 42 146 b 413 721 42 558 201 721 m 413 151 b 604 351 531 151 604 242 b 413 551 604 461 531 551 b 222 351 296 551 222 461 b 413 151 222 242 296 151 "},"p":{"ha":869,"x_min":0,"x_max":0,"o":"m 483 721 b 828 351 703 721 828 536 b 483 -18 828 167 703 -18 b 260 82 375 -18 304 25 l 260 -268 l 83 -268 l 83 704 l 260 704 l 260 621 b 483 721 304 679 375 721 m 457 151 b 647 351 578 151 647 243 b 457 551 647 460 578 551 b 267 351 335 551 267 460 b 457 151 267 243 335 151 "},"q":{"ha":869,"x_min":0,"x_max":0,"o":"m 786 704 l 786 -268 l 610 -268 l 610 82 b 386 -18 565 25 494 -18 b 42 351 167 -18 42 167 b 386 721 42 536 167 721 b 610 621 494 721 565 679 l 610 704 m 413 151 b 603 351 533 151 603 243 b 413 551 603 460 533 551 b 222 351 292 551 222 460 b 413 151 222 243 292 151 "},"r":{"ha":536,"x_min":0,"x_max":0,"o":"m 260 589 b 494 721 313 676 410 721 l 494 529 b 260 290 286 554 260 421 l 260 0 l 83 0 l 83 704 l 260 704 l 260 589 "},"s":{"ha":657,"x_min":0,"x_max":0,"o":"m 374 421 b 622 217 546 383 622 336 b 324 -18 622 78 521 -18 b 21 154 189 -18 53 36 l 190 207 b 326 131 196 178 224 131 b 442 204 400 131 442 157 b 257 286 442 271 340 268 b 51 500 121 314 51 379 b 328 721 51 633 163 721 b 597 539 449 721 568 661 l 438 500 b 328 572 429 536 394 572 b 224 500 276 572 224 553 b 374 421 224 438 318 433 "},"t":{"ha":531,"x_min":0,"x_max":0,"o":"m 318 543 l 318 286 b 426 158 318 206 329 158 b 468 161 439 158 456 160 l 468 0 b 394 -10 450 -6 431 -10 b 142 257 214 -10 142 111 l 142 543 l 42 543 l 42 704 l 142 704 l 142 851 l 318 851 l 318 704 l 468 704 l 468 543 "},"u":{"ha":806,"x_min":0,"x_max":0,"o":"m 722 704 l 722 0 l 546 0 l 546 86 b 342 -18 507 28 444 -18 b 83 275 164 -18 83 126 l 83 704 l 260 704 l 260 313 b 396 154 260 222 297 154 b 546 313 501 154 546 231 l 546 704 "},"v":{"ha":757,"x_min":0,"x_max":0,"o":"m 736 704 l 475 0 l 282 0 l 21 704 l 211 704 l 378 204 l 546 704 "},"w":{"ha":1110,"x_min":0,"x_max":0,"o":"m 1089 704 l 853 0 l 696 0 l 554 415 l 414 0 l 257 0 l 21 704 l 211 704 l 346 257 l 497 704 l 613 704 l 763 257 l 899 704 "},"x":{"ha":744,"x_min":0,"x_max":0,"o":"m 519 0 l 372 228 l 225 0 l 21 0 l 260 363 l 32 704 l 238 704 l 372 485 l 507 704 l 713 704 l 485 361 l 724 0 "},"y":{"ha":769,"x_min":0,"x_max":0,"o":"m 749 704 l 364 -268 l 183 -268 l 313 42 l 21 704 l 211 704 l 393 239 l 558 704 "},"z":{"ha":683,"x_min":0,"x_max":0,"o":"m 621 161 l 621 0 l 63 0 l 63 124 l 385 543 l 75 543 l 75 704 l 608 704 l 608 581 l 285 161 "},".":{"ha":329,"x_min":0,"x_max":0,"o":"m 165 188 b 267 85 221 188 267 142 b 165 -18 267 28 221 -18 b 63 85 108 -18 63 28 b 165 188 63 142 108 188 "},",":{"ha":360,"x_min":0,"x_max":0,"o":"m 297 99 l 132 -154 l 21 -90 l 151 183 "},":":{"ha":358,"x_min":0,"x_max":0,"o":"m 179 188 b 282 85 235 188 282 142 b 179 -18 282 28 235 -18 b 76 85 122 -18 76 28 b 179 188 76 142 122 188 m 179 515 b 76 618 122 515 76 561 b 179 721 76 675 122 721 b 282 618 235 721 282 675 b 179 515 282 561 235 515 "},";":{"ha":403,"x_min":0,"x_max":0,"o":"m 225 515 b 122 618 168 515 122 561 b 225 721 122 675 168 721 b 326 618 281 721 326 675 b 225 515 326 561 281 515 m 164 183 l 310 99 l 144 -154 l 35 -90 "},"!":{"ha":386,"x_min":0,"x_max":0,"o":"m 193 188 b 296 85 250 188 296 142 b 193 -18 296 28 250 -18 b 90 85 136 -18 90 28 b 193 188 90 142 136 188 m 119 314 l 100 972 l 288 972 l 268 314 "},"?":{"ha":678,"x_min":0,"x_max":0,"o":"m 339 188 b 442 85 396 188 442 142 b 339 -18 442 28 396 -18 b 236 85 282 -18 236 28 b 339 188 236 142 282 188 m 328 829 b 201 721 249 829 213 774 l 42 761 b 340 989 79 922 208 989 b 636 732 507 989 636 867 b 425 314 636 515 425 501 l 257 314 b 458 707 257 528 458 572 b 328 829 458 776 415 829 "},"¿":{"ha":678,"x_min":0,"x_max":0,"o":"m 339 515 b 236 618 282 515 236 561 b 339 721 236 675 282 721 b 440 618 394 721 440 675 b 339 515 440 561 394 515 m 636 -57 b 336 -286 599 -219 469 -286 b 42 -29 171 -286 42 -162 b 253 389 42 188 253 201 l 421 389 b 219 -4 421 176 219 131 b 349 -126 219 -74 263 -126 b 476 -18 429 -126 464 -71 "},"¡":{"ha":385,"x_min":0,"x_max":0,"o":"m 193 515 b 90 618 136 515 90 561 b 193 721 90 675 136 721 b 294 618 249 721 294 675 b 193 515 294 561 249 515 m 267 389 l 286 -268 l 99 -268 l 118 389 "},"-":{"ha":625,"x_min":0,"x_max":0,"o":"m 535 488 l 535 339 l 90 339 l 90 488 "},"–":{"ha":700,"x_min":0,"x_max":0,"o":"m 610 488 l 610 339 l 90 339 l 90 488 "},"—":{"ha":774,"x_min":0,"x_max":0,"o":"m 683 488 l 683 339 l 90 339 l 90 488 "},"_":{"ha":576,"x_min":0,"x_max":0,"o":"m 542 -111 l 542 -235 l 35 -235 l 35 -111 "},"+":{"ha":725,"x_min":0,"x_max":0,"o":"m 635 339 l 436 339 l 436 142 l 288 142 l 288 339 l 90 339 l 90 488 l 288 488 l 288 686 l 436 686 l 436 488 l 635 488 "},"×":{"ha":643,"x_min":0,"x_max":0,"o":"m 426 414 l 567 274 l 461 168 l 321 308 l 182 168 l 76 274 l 217 414 l 76 553 l 182 658 l 321 518 l 461 658 l 567 553 "},"÷":{"ha":725,"x_min":0,"x_max":0,"o":"m 635 488 l 635 339 l 90 339 l 90 488 m 363 607 b 269 700 311 607 269 649 b 363 793 269 751 311 793 b 456 700 414 793 456 751 b 363 607 456 649 414 607 m 363 219 b 456 126 414 219 456 178 b 363 35 456 75 414 35 b 269 126 311 35 269 75 b 363 219 269 178 311 219 "},"=":{"ha":700,"x_min":0,"x_max":0,"o":"m 610 624 l 610 475 l 90 475 l 90 624 m 90 351 l 610 351 l 610 203 l 90 203 "},"≠":{"ha":700,"x_min":0,"x_max":0,"o":"m 426 475 l 372 351 l 610 351 l 610 203 l 308 203 l 253 74 l 156 74 l 211 203 l 90 203 l 90 351 l 275 351 l 329 475 l 90 475 l 90 624 l 393 624 l 449 753 l 546 753 l 490 624 l 610 624 l 610 475 "},"<":{"ha":700,"x_min":0,"x_max":0,"o":"m 610 540 l 218 382 l 610 224 l 610 75 l 90 294 l 90 469 l 610 689 "},">":{"ha":700,"x_min":0,"x_max":0,"o":"m 610 469 l 610 294 l 90 75 l 90 224 l 482 382 l 90 540 l 90 689 "},"±":{"ha":725,"x_min":0,"x_max":0,"o":"m 635 611 l 635 463 l 436 463 l 436 265 l 288 265 l 288 463 l 90 463 l 90 611 l 288 611 l 288 810 l 436 810 l 436 611 m 90 149 l 635 149 l 635 0 l 90 0 "},"≤":{"ha":700,"x_min":0,"x_max":0,"o":"m 90 149 l 610 149 l 610 0 l 90 0 m 610 653 l 238 525 l 610 397 l 610 250 l 90 447 l 90 603 l 610 800 "},"≥":{"ha":700,"x_min":0,"x_max":0,"o":"m 610 149 l 610 0 l 90 0 l 90 149 m 610 447 l 90 250 l 90 397 l 464 525 l 90 653 l 90 800 l 610 603 "},"«":{"ha":815,"x_min":0,"x_max":0,"o":"m 247 349 l 414 103 l 229 103 l 63 349 l 229 594 l 414 594 m 586 349 l 753 103 l 568 103 l 401 349 l 568 594 l 753 594 "},"»":{"ha":817,"x_min":0,"x_max":0,"o":"m 754 349 l 588 103 l 401 103 l 569 349 l 401 594 l 588 594 m 415 349 l 249 103 l 63 103 l 231 349 l 63 594 l 249 594 "},"~":{"ha":808,"x_min":0,"x_max":0,"o":"m 732 489 b 556 313 713 375 663 313 b 275 376 440 313 358 376 b 206 313 226 376 214 349 l 76 339 b 267 514 99 444 156 514 b 536 453 374 514 458 453 b 603 515 592 453 599 492 "},"≈":{"ha":807,"x_min":0,"x_max":0,"o":"m 274 514 b 206 449 226 514 213 486 l 76 475 b 267 651 99 581 156 651 b 535 589 374 651 457 589 b 603 651 592 589 599 629 l 731 625 b 556 450 713 513 663 450 b 274 514 439 450 358 514 m 535 315 b 603 378 592 315 599 356 l 731 351 b 556 176 713 238 663 176 b 274 240 439 176 358 240 b 206 175 226 240 213 211 l 76 201 b 267 376 99 307 156 376 b 535 315 374 376 457 315 "},"^":{"ha":719,"x_min":0,"x_max":0,"o":"m 499 557 l 360 826 l 222 557 l 63 557 l 286 972 l 435 972 l 657 557 "},"†":{"ha":729,"x_min":0,"x_max":0,"o":"m 639 601 l 453 601 l 453 0 l 276 0 l 276 601 l 90 601 l 90 750 l 276 750 l 276 972 l 453 972 l 453 750 l 639 750 "},"‡":{"ha":729,"x_min":0,"x_max":0,"o":"m 453 601 l 453 371 l 639 371 l 639 222 l 453 222 l 453 0 l 276 0 l 276 222 l 90 222 l 90 371 l 276 371 l 276 601 l 90 601 l 90 750 l 276 750 l 276 972 l 453 972 l 453 750 l 639 750 l 639 601 "},"¶":{"ha":913,"x_min":0,"x_max":0,"o":"m 836 803 l 743 803 l 743 -124 l 594 -124 l 594 803 l 457 803 l 457 -124 l 308 -124 l 308 511 b 49 742 171 515 49 594 b 319 972 49 892 178 972 l 836 972 "},"/":{"ha":688,"x_min":0,"x_max":0,"o":"m 625 1106 l 224 -135 l 63 -135 l 464 1106 "},"{":{"ha":569,"x_min":0,"x_max":0,"o":"m 344 649 b 238 489 344 575 318 508 l 238 483 b 344 322 318 464 344 397 l 344 181 b 461 22 344 75 349 22 l 493 22 l 493 -135 l 421 -135 b 172 104 263 -135 172 -69 l 172 310 b 90 418 172 396 154 418 l 90 554 b 172 661 154 554 172 576 l 172 867 b 421 1106 172 1040 263 1106 l 493 1106 l 493 950 l 461 950 b 344 792 349 950 344 896 l 344 649 "},"‹":{"ha":476,"x_min":0,"x_max":0,"o":"m 247 349 l 414 103 l 229 103 l 63 349 l 229 594 l 414 594 "},"›":{"ha":478,"x_min":0,"x_max":0,"o":"m 415 349 l 249 103 l 63 103 l 231 349 l 63 594 l 249 594 "},"−":{"ha":625,"x_min":0,"x_max":0,"o":"m 535 488 l 535 339 l 90 339 l 90 488 "},"[":{"ha":494,"x_min":0,"x_max":0,"o":"m 264 950 l 264 22 l 418 22 l 418 -135 l 90 -135 l 90 1106 l 418 1106 l 418 950 "},"(":{"ha":474,"x_min":0,"x_max":0,"o":"m 397 1017 b 263 486 333 915 263 724 b 397 -44 263 249 333 56 l 276 -136 b 90 486 192 -15 90 214 b 276 1107 90 758 192 988 l 397 1017 "},"|":{"ha":342,"x_min":0,"x_max":0,"o":"m 251 1051 l 251 -207 l 90 -207 l 90 1051 "},"¦":{"ha":342,"x_min":0,"x_max":0,"o":"m 90 286 l 251 286 l 251 -207 l 90 -207 m 251 1051 l 251 558 l 90 558 l 90 1051 "},")":{"ha":475,"x_min":0,"x_max":0,"o":"m 197 1107 b 385 486 282 988 385 758 b 197 -136 385 214 282 -15 l 76 -44 b 211 486 140 56 211 249 b 76 1017 211 724 140 915 l 197 1107 "},"]":{"ha":494,"x_min":0,"x_max":0,"o":"m 404 1106 l 404 -135 l 76 -135 l 76 22 l 231 22 l 231 950 l 76 950 l 76 1106 "},"}":{"ha":569,"x_min":0,"x_max":0,"o":"m 397 661 b 479 554 397 576 415 554 l 479 418 b 397 310 415 418 397 396 l 397 104 b 147 -135 397 -69 306 -135 l 76 -135 l 76 22 l 108 22 b 224 181 221 22 224 75 l 224 322 b 332 483 224 397 251 464 l 332 489 b 224 649 251 508 224 575 l 224 792 b 108 950 224 896 221 950 l 76 950 l 76 1106 l 147 1106 b 397 867 306 1106 397 1040 l 397 661 "},"\\":{"ha":688,"x_min":0,"x_max":0,"o":"m 625 -135 l 464 -135 l 63 1106 l 224 1106 "},"$":{"ha":824,"x_min":0,"x_max":0,"o":"m 789 282 b 478 -15 789 142 696 4 l 478 -154 l 367 -154 l 367 -15 b 35 218 210 0 76 74 l 217 275 b 425 147 231 219 289 147 b 600 268 522 147 600 185 b 336 410 600 365 489 372 b 75 692 140 458 75 557 b 367 986 75 860 192 969 l 367 1125 l 478 1125 l 478 985 b 750 760 611 968 714 889 l 567 715 b 408 824 556 767 506 824 b 261 704 328 824 261 782 b 475 558 261 594 385 579 b 789 282 706 506 789 439 "},"¢":{"ha":813,"x_min":0,"x_max":0,"o":"m 435 286 b 597 376 510 286 565 322 l 750 288 b 468 118 692 193 590 128 l 468 0 l 357 0 l 357 124 b 63 486 185 158 63 306 b 357 847 63 665 185 813 l 357 972 l 468 972 l 468 854 b 750 683 590 843 692 779 l 597 596 b 435 686 565 650 510 686 b 243 486 317 686 243 596 b 435 286 243 376 317 286 "},"€":{"ha":1039,"x_min":0,"x_max":0,"o":"m 625 161 b 854 265 726 161 803 203 l 1011 163 b 625 -18 922 51 786 -18 b 149 347 386 -18 203 133 l 35 347 l 35 446 l 132 446 b 131 486 132 460 131 472 b 132 525 131 499 132 513 l 35 525 l 35 625 l 149 625 b 625 989 203 839 386 989 b 1011 808 786 989 922 921 l 854 706 b 625 810 803 768 726 810 b 346 625 483 810 389 729 l 654 625 l 654 525 l 321 525 b 319 486 319 513 319 499 b 321 446 319 472 319 460 l 654 446 l 654 347 l 346 347 b 625 161 389 243 483 161 "},"¥":{"ha":956,"x_min":0,"x_max":0,"o":"m 629 458 l 782 458 l 782 360 l 572 360 l 572 281 l 782 281 l 782 181 l 572 181 l 572 0 l 383 0 l 383 181 l 174 181 l 174 281 l 383 281 l 383 360 l 174 360 l 174 458 l 326 458 l 21 972 l 226 972 l 478 532 l 729 972 l 935 972 "},"₽":{"ha":954,"x_min":0,"x_max":0,"o":"m 396 301 l 396 221 l 669 221 l 669 122 l 396 122 l 396 0 l 207 0 l 207 122 l 63 122 l 63 221 l 207 221 l 207 301 l 63 301 l 63 476 l 207 476 l 207 972 l 533 972 b 906 636 764 972 906 838 b 533 301 906 435 764 301 m 396 476 l 533 476 b 714 636 647 476 714 535 b 533 797 714 739 647 797 l 396 797 "},"₿":{"ha":850,"x_min":0,"x_max":0,"o":"m 801 281 b 579 13 801 143 724 46 l 579 -154 l 467 -154 l 467 0 b 456 0 464 0 460 0 l 368 0 l 368 -154 l 257 -154 l 257 0 l 90 0 l 90 972 l 257 972 l 257 1125 l 368 1125 l 368 972 l 421 972 b 467 971 436 972 453 971 l 467 1125 l 579 1125 l 579 950 b 763 711 699 911 763 824 b 656 514 763 621 725 556 l 656 511 b 801 281 750 468 801 389 m 574 692 b 421 810 574 781 503 810 l 279 810 l 279 568 l 421 568 b 574 692 507 568 574 601 m 456 163 b 610 293 546 163 610 207 b 456 418 610 383 540 418 l 279 418 l 279 163 l 456 163 "},"£":{"ha":832,"x_min":0,"x_max":0,"o":"m 756 175 l 756 0 l 63 0 l 63 175 b 190 399 146 236 190 294 b 190 424 190 408 190 415 l 63 424 l 63 522 l 167 522 b 122 710 147 578 122 629 b 435 989 122 868 236 989 b 728 772 585 989 696 913 l 554 729 b 439 822 546 772 513 822 b 324 699 378 822 324 782 b 361 522 324 628 346 579 l 608 522 l 608 424 b 376 424 376 424 376 424 b 249 176 376 311 311 226 l 249 175 "},"¤":{"ha":717,"x_min":0,"x_max":0,"o":"m 575 190 l 486 279 b 358 242 449 256 406 242 b 231 279 311 242 268 256 l 142 190 l 63 268 l 151 358 b 115 486 129 394 115 439 b 151 614 115 533 129 576 l 63 703 l 142 782 l 231 693 b 358 729 268 715 311 729 b 486 693 406 729 449 715 l 575 782 l 654 703 l 565 614 b 601 486 589 576 601 533 b 565 358 601 439 589 394 l 654 268 m 358 378 b 467 486 418 378 467 426 b 358 593 467 544 418 593 b 251 486 299 593 251 544 b 358 378 251 426 299 378 "},"*":{"ha":639,"x_min":0,"x_max":0,"o":"m 400 697 l 519 561 l 411 483 l 319 639 l 228 483 l 119 561 l 239 697 l 63 736 l 104 864 l 269 792 l 253 972 l 386 972 l 369 792 l 536 864 l 576 736 "},"°":{"ha":565,"x_min":0,"x_max":0,"o":"m 282 972 b 503 751 403 972 503 874 b 282 532 503 631 403 532 b 63 751 161 532 63 631 b 282 972 63 874 161 972 m 282 656 b 379 751 335 656 379 699 b 282 849 379 806 335 849 b 186 751 229 849 186 806 b 282 656 186 699 229 656 "},"#":{"ha":901,"x_min":0,"x_max":0,"o":"m 690 563 l 664 410 l 796 410 l 776 286 l 644 286 l 607 61 l 468 61 l 506 286 l 331 286 l 293 61 l 156 61 l 192 286 l 63 286 l 82 410 l 213 410 l 238 563 l 106 563 l 125 686 l 258 686 l 294 910 l 433 910 l 396 686 l 571 686 l 608 910 l 747 910 l 710 686 l 839 686 l 819 563 m 551 563 l 376 563 l 351 410 l 526 410 "},"©":{"ha":1138,"x_min":0,"x_max":0,"o":"m 583 653 b 426 486 481 653 426 569 b 583 318 426 403 481 318 b 703 372 636 318 676 340 l 783 319 b 583 226 738 261 667 226 b 329 486 435 226 329 339 b 583 746 329 633 435 746 b 783 653 667 746 738 710 l 703 600 b 583 653 676 632 636 653 m 568 985 b 1068 486 843 985 1068 761 b 568 -14 1068 211 843 -14 b 69 486 293 -14 69 211 b 568 985 69 761 293 985 m 568 74 b 981 486 796 74 981 258 b 568 899 981 714 796 899 b 156 486 340 899 156 714 b 568 74 156 258 340 74 "},"®":{"ha":1138,"x_min":0,"x_max":0,"o":"m 778 576 b 679 432 778 508 740 457 l 807 239 l 694 239 l 585 415 l 488 415 l 488 239 l 389 239 l 389 744 l 589 744 b 778 576 706 744 778 672 m 488 500 l 589 500 b 678 576 640 500 678 525 b 589 654 678 624 644 654 l 488 654 m 569 985 b 1068 486 844 985 1068 761 b 569 -14 1068 211 844 -14 b 69 486 294 -14 69 211 b 569 985 69 761 294 985 m 569 74 b 982 486 797 74 982 258 b 569 899 982 714 797 899 b 157 486 342 899 157 714 b 569 74 157 258 342 74 "},"%":{"ha":1217,"x_min":0,"x_max":0,"o":"m 997 972 l 356 0 l 219 0 l 861 972 m 535 733 b 299 497 535 603 429 497 b 63 733 168 497 63 603 b 299 969 63 863 168 969 b 535 733 429 969 535 863 m 186 733 b 299 621 186 671 236 621 b 411 733 360 621 411 671 b 299 846 411 794 360 846 b 186 733 236 846 186 794 m 918 475 b 1154 239 1049 475 1154 369 b 918 3 1154 108 1049 3 b 682 239 789 3 682 108 b 918 475 682 369 789 475 m 918 126 b 1031 239 981 126 1031 176 b 918 351 1031 301 981 351 b 806 239 857 351 806 301 b 918 126 806 176 857 126 "},"‰":{"ha":1786,"x_min":0,"x_max":0,"o":"m 997 972 l 356 0 l 219 0 l 863 972 m 535 733 b 299 497 535 603 429 497 b 63 733 168 497 63 603 b 299 969 63 863 168 969 b 535 733 429 969 535 863 m 186 733 b 299 621 186 671 238 621 b 411 733 361 621 411 671 b 299 846 411 794 361 846 b 186 733 238 846 186 794 m 919 475 b 1156 239 1049 475 1156 369 b 919 3 1156 108 1049 3 b 683 239 789 3 683 108 b 919 475 683 369 789 475 m 919 126 b 1032 239 981 126 1032 176 b 919 351 1032 301 981 351 b 807 239 857 351 807 301 b 919 126 807 176 857 126 m 1488 475 b 1724 239 1618 475 1724 369 b 1488 3 1724 108 1618 3 b 1251 239 1357 3 1251 108 b 1488 475 1251 369 1357 475 m 1488 126 b 1600 239 1549 126 1600 176 b 1488 351 1600 301 1549 351 b 1375 239 1425 351 1375 301 b 1488 126 1375 176 1425 126 "},"№":{"ha":1542,"x_min":0,"x_max":0,"o":"m 692 972 l 881 972 l 881 0 l 710 0 l 279 643 l 279 0 l 90 0 l 90 972 l 261 972 l 692 329 m 1039 414 l 1463 414 l 1463 253 l 1039 253 m 1250 515 b 1022 743 1125 515 1022 618 b 1250 971 1022 869 1125 971 b 1479 743 1376 971 1479 869 b 1250 515 1479 618 1376 515 m 1250 836 b 1158 743 1200 836 1158 794 b 1250 651 1158 693 1200 651 b 1343 743 1301 651 1343 693 b 1250 836 1343 794 1301 836 "},"§":{"ha":800,"x_min":0,"x_max":0,"o":"m 724 408 b 618 211 724 328 676 251 b 663 86 646 178 663 138 b 379 -162 663 -79 524 -162 b 103 15 235 -162 126 -97 l 265 49 b 375 -33 269 15 303 -33 b 486 63 449 -33 486 10 b 76 418 486 229 76 149 b 182 615 76 499 125 575 b 139 740 154 647 139 688 b 421 989 139 906 276 989 b 697 811 567 989 674 924 l 535 778 b 425 860 531 811 499 860 b 314 764 351 860 314 817 b 724 408 314 596 724 676 m 442 314 b 519 282 469 304 496 293 b 568 372 546 303 568 335 b 358 513 568 460 439 485 b 281 544 332 522 306 533 b 233 453 254 524 233 490 b 442 314 233 367 361 342 "},"⁄":{"ha":688,"x_min":0,"x_max":0,"o":"m 625 1106 l 224 -135 l 63 -135 l 464 1106 "},"ſ":{"ha":517,"x_min":0,"x_max":0,"o":"m 444 839 b 324 704 354 839 324 790 b 324 0 324 704 324 704 l 147 0 l 147 543 l 49 543 l 49 704 l 147 704 b 401 990 147 849 211 990 b 475 985 436 990 451 989 l 475 838 b 444 839 465 838 456 839 "},"&":{"ha":1038,"x_min":0,"x_max":0,"o":"m 811 190 b 1031 0 900 111 988 36 l 803 0 b 710 81 778 22 739 56 b 411 -18 642 28 546 -18 b 49 272 186 -18 49 114 b 247 539 49 410 150 492 b 172 743 215 594 172 660 b 454 989 172 893 292 989 b 713 763 597 989 713 893 b 474 503 713 607 600 549 b 538 439 490 486 518 457 l 557 421 b 699 290 603 376 651 333 b 754 450 735 353 750 417 l 901 431 b 811 190 889 349 860 264 m 443 865 b 324 743 363 865 324 803 b 385 597 324 683 357 638 b 553 763 507 646 553 685 b 443 865 553 819 511 865 m 403 118 b 596 182 500 118 560 146 b 454 313 549 225 501 269 l 436 331 b 325 439 400 365 357 406 b 210 272 257 411 210 354 b 403 118 210 175 307 118 "},"“":{"ha":668,"x_min":0,"x_max":0,"o":"m 233 976 l 328 924 l 193 628 l 63 703 m 606 924 l 472 628 l 342 703 l 513 976 "},"”":{"ha":668,"x_min":0,"x_max":0,"o":"m 606 901 l 435 628 l 340 681 l 475 976 m 196 976 l 326 901 l 156 628 l 63 681 "},"„":{"ha":626,"x_min":0,"x_max":0,"o":"m 564 113 l 393 -162 l 299 -108 l 433 188 m 156 188 l 285 113 l 114 -162 l 21 -108 "},"'":{"ha":328,"x_min":0,"x_max":0,"o":"m 238 972 l 238 650 l 90 650 l 90 972 "},"@":{"ha":1286,"x_min":0,"x_max":0,"o":"m 650 1013 b 1210 514 1013 1013 1210 771 b 972 188 1210 294 1086 188 b 807 289 892 188 836 221 b 611 194 767 232 703 194 b 353 467 454 194 353 319 b 604 739 353 607 454 739 b 789 647 692 739 751 700 l 789 725 l 904 725 l 904 425 b 981 297 904 357 911 297 b 1099 514 1057 297 1099 406 b 650 914 1099 739 928 914 b 188 464 376 914 188 739 b 631 19 188 179 407 19 b 892 103 768 19 860 74 l 960 22 b 631 -81 903 -25 796 -81 b 76 464 306 -81 76 147 b 650 1013 76 786 304 1013 m 638 321 b 783 467 739 321 783 394 b 638 611 783 547 725 611 b 492 467 553 611 492 551 b 638 321 492 386 546 321 "},"•":{"ha":478,"x_min":0,"x_max":0,"o":"m 239 600 b 401 438 328 600 401 528 b 239 276 401 349 328 276 b 76 438 149 276 76 349 b 239 600 76 528 149 600 "},"\"":{"ha":571,"x_min":0,"x_max":0,"o":"m 90 972 l 239 972 l 239 650 l 90 650 m 481 972 l 481 650 l 332 650 l 332 972 "},"Æ":{"ha":1310,"x_min":0,"x_max":0,"o":"m 1247 175 l 1247 0 l 674 0 l 674 193 l 311 193 l 219 0 l 21 0 l 494 972 l 1233 972 l 1233 797 l 861 797 l 861 578 l 1203 578 l 1203 403 l 861 403 l 861 175 m 674 361 l 674 797 l 593 797 l 389 361 "},"Œ":{"ha":1311,"x_min":0,"x_max":0,"o":"m 1249 175 l 1249 0 l 574 0 b 56 486 249 0 56 200 b 574 972 56 772 249 972 l 1235 972 l 1235 797 l 863 797 l 863 578 l 1204 578 l 1204 403 l 863 403 l 863 175 m 675 175 l 675 797 l 574 797 b 244 486 396 797 244 703 b 574 175 244 269 396 175 "},"Đ":{"ha":1018,"x_min":0,"x_max":0,"o":"m 444 972 b 963 486 769 972 963 772 b 444 0 963 200 769 0 l 143 0 l 143 436 l 21 436 l 21 535 l 143 535 l 143 972 l 444 972 m 444 175 b 774 486 622 175 774 269 b 444 797 774 703 622 797 l 332 797 l 332 535 l 553 535 l 553 436 l 332 436 l 332 175 l 444 175 "},"Ø":{"ha":1100,"x_min":0,"x_max":0,"o":"m 953 786 b 1043 486 1011 703 1043 600 b 550 -18 1043 201 838 -18 b 213 110 415 -18 299 31 l 128 33 l 61 107 l 147 186 b 56 486 89 268 56 372 b 550 989 56 771 263 989 b 888 861 685 989 801 942 l 972 939 l 1040 864 l 953 786 m 244 486 b 288 314 244 426 258 365 l 751 736 b 550 810 701 782 633 810 b 244 486 349 810 244 647 m 550 161 b 856 486 750 161 856 324 b 813 657 856 546 840 606 l 350 235 b 550 161 399 190 467 161 "},"Þ":{"ha":838,"x_min":0,"x_max":0,"o":"m 417 821 b 789 486 647 821 789 688 b 417 150 789 285 647 150 l 279 150 l 279 0 l 90 0 l 90 972 l 279 972 l 279 821 l 417 821 m 417 325 b 597 486 532 325 597 383 b 417 646 597 588 532 646 l 279 646 l 279 325 l 417 325 "},"Ħ":{"ha":1053,"x_min":0,"x_max":0,"o":"m 1039 728 l 915 728 l 915 0 l 726 0 l 726 403 l 325 403 l 325 0 l 136 0 l 136 728 l 14 728 l 14 828 l 136 828 l 136 972 l 325 972 l 325 828 l 726 828 l 726 972 l 915 972 l 915 828 l 1039 828 m 726 728 l 325 728 l 325 578 l 726 578 "},"Ŧ":{"ha":753,"x_min":0,"x_max":0,"o":"m 471 797 l 471 572 l 638 572 l 638 474 l 471 474 l 471 0 l 282 0 l 282 474 l 117 474 l 117 572 l 282 572 l 282 797 l 49 797 l 49 972 l 704 972 l 704 797 "},"Ŋ":{"ha":971,"x_min":0,"x_max":0,"o":"m 881 972 l 881 18 b 625 -293 881 -160 817 -293 b 539 -285 596 -293 574 -290 l 539 -122 b 693 26 675 -132 692 -82 l 279 643 l 279 0 l 90 0 l 90 972 l 261 972 l 693 329 l 693 972 "},"Ł":{"ha":760,"x_min":0,"x_max":0,"o":"m 711 175 l 711 0 l 149 0 l 149 333 l 54 281 l 7 364 l 149 443 l 149 972 l 338 972 l 338 550 l 494 638 l 542 554 l 338 440 l 338 175 "},"æ":{"ha":1226,"x_min":0,"x_max":0,"o":"m 831 721 b 1181 283 1043 721 1213 561 l 658 283 b 860 139 683 189 761 139 b 1017 208 939 139 994 182 l 1157 125 b 860 -18 1100 46 993 -18 b 578 100 735 -18 639 26 b 304 -18 536 33 435 -18 b 42 189 190 -18 42 39 b 419 421 42 421 328 421 b 497 421 449 421 479 421 b 351 567 494 522 460 567 b 204 515 288 567 229 533 l 83 607 b 376 721 161 678 258 721 b 600 629 490 721 560 686 b 831 721 658 688 739 721 m 497 310 b 485 310 493 310 489 310 b 222 206 360 310 222 311 b 344 110 222 153 257 110 b 497 190 435 110 481 161 m 1008 419 b 835 564 990 511 928 564 b 658 419 747 564 681 510 "},"œ":{"ha":1357,"x_min":0,"x_max":0,"o":"m 961 721 b 1311 283 1174 721 1343 561 l 789 283 b 990 139 814 189 892 139 b 1147 208 1069 139 1125 182 l 1288 125 b 990 -18 1231 46 1124 -18 b 696 107 861 -18 760 29 b 414 -18 629 31 529 -18 b 42 351 203 -18 42 146 b 414 721 42 558 203 721 b 696 597 529 721 628 674 b 961 721 758 675 853 721 m 414 151 b 606 351 532 151 606 242 b 414 551 606 461 532 551 b 222 351 296 551 222 461 b 414 151 222 242 296 151 m 1139 419 b 965 564 1121 511 1058 564 b 789 419 878 564 811 510 "},"đ":{"ha":869,"x_min":0,"x_max":0,"o":"m 871 765 l 786 765 l 786 0 l 610 0 l 610 74 b 386 -18 565 21 494 -18 b 42 326 167 -18 42 142 b 386 696 42 511 167 696 b 610 596 494 696 565 654 l 610 765 l 425 765 l 425 840 l 610 840 l 610 972 l 786 972 l 786 840 l 871 840 m 413 126 b 603 326 533 126 603 218 b 413 526 603 436 533 526 b 222 326 292 526 222 435 b 413 126 222 219 292 126 "},"ð":{"ha":811,"x_min":0,"x_max":0,"o":"m 531 853 b 769 336 657 733 769 561 b 404 -18 769 113 625 -18 b 42 324 196 -18 42 122 b 379 654 42 518 186 654 b 514 622 442 654 492 636 l 515 624 b 388 783 494 676 446 732 l 215 700 l 183 767 l 322 833 b 160 928 265 875 206 910 l 297 1022 b 471 907 344 997 407 958 l 638 989 l 671 922 l 531 853 m 404 143 b 585 324 525 143 585 233 b 404 506 585 419 514 506 b 222 324 296 506 222 426 b 404 143 222 213 311 143 "},"ø":{"ha":828,"x_min":0,"x_max":0,"o":"m 714 575 b 786 351 760 513 786 436 b 414 -18 786 146 626 -18 b 165 75 317 -18 231 17 l 94 10 l 44 65 l 115 129 b 42 351 69 190 42 268 b 414 721 42 558 203 721 b 663 629 511 721 599 686 l 733 693 l 783 639 l 714 575 m 222 351 b 247 250 222 314 232 279 l 535 511 b 414 551 503 536 463 551 b 222 351 296 551 222 461 m 414 151 b 606 351 532 151 606 242 b 581 454 606 389 597 424 l 294 192 b 414 151 325 167 367 151 "},"þ":{"ha":869,"x_min":0,"x_max":0,"o":"m 485 721 b 828 351 703 721 828 536 b 485 -18 828 167 703 -18 b 260 82 375 -18 304 25 l 260 -268 l 83 -268 l 83 972 l 260 972 l 260 621 b 485 721 304 679 375 721 m 457 151 b 647 351 578 151 647 243 b 457 551 647 460 578 551 b 267 351 336 551 267 460 b 457 151 267 243 336 151 "},"‚":{"ha":347,"x_min":0,"x_max":0,"o":"m 156 188 l 285 113 l 114 -162 l 21 -108 "},"‘":{"ha":390,"x_min":0,"x_max":0,"o":"m 233 976 l 328 924 l 193 628 l 63 703 "},"’":{"ha":390,"x_min":0,"x_max":0,"o":"m 328 901 l 157 628 l 63 681 l 197 976 "},"ħ":{"ha":806,"x_min":0,"x_max":0,"o":"m 464 696 b 722 403 642 696 722 553 l 722 0 l 547 0 l 547 367 b 410 525 547 457 508 525 b 260 367 306 525 260 447 l 260 0 l 83 0 l 83 765 l -1 765 l -1 840 l 83 840 l 83 972 l 260 972 l 260 840 l 444 840 l 444 765 l 260 765 l 260 593 b 464 696 299 650 363 696 "},"ŧ":{"ha":531,"x_min":0,"x_max":0,"o":"m 317 369 l 317 286 b 426 158 317 206 328 158 b 468 161 438 158 456 160 l 468 0 b 394 -10 449 -6 431 -10 b 140 257 214 -10 140 111 l 140 369 l 42 369 l 42 444 l 140 444 l 140 543 l 42 543 l 42 704 l 140 704 l 140 851 l 317 851 l 317 704 l 468 704 l 468 543 l 317 543 l 317 444 l 468 444 l 468 369 "},"ŋ":{"ha":807,"x_min":0,"x_max":0,"o":"m 465 721 b 724 428 642 721 724 576 l 724 13 b 467 -257 724 -144 643 -257 b 406 -251 446 -257 422 -254 l 406 -90 b 428 -92 411 -90 419 -92 b 547 36 508 -92 547 -58 l 547 392 b 410 550 547 482 510 550 b 260 392 306 550 260 472 l 260 0 l 83 0 l 83 704 l 260 704 l 260 618 b 465 721 299 675 363 721 "},"ł":{"ha":458,"x_min":0,"x_max":0,"o":"m 317 496 l 317 0 l 140 0 l 140 389 l 44 332 l 7 394 l 140 476 l 140 972 l 317 972 l 317 583 l 413 642 l 451 578 "},"ŉ":{"ha":850,"x_min":0,"x_max":0,"o":"m 508 721 b 767 428 685 721 767 576 l 767 0 l 590 0 l 590 392 b 453 550 590 482 551 550 b 303 392 349 550 303 472 l 303 0 l 126 0 l 126 704 l 303 704 l 303 618 b 508 721 342 675 406 721 m 236 972 l 122 765 l -14 765 l 63 972 "},"ß":{"ha":824,"x_min":0,"x_max":0,"o":"m 593 508 b 782 267 704 471 782 393 b 394 0 782 74 625 -39 l 394 139 b 607 276 540 119 607 181 b 418 407 607 379 521 407 l 394 407 l 394 558 b 539 692 490 558 539 611 b 401 819 539 765 486 819 b 258 644 319 819 258 769 l 258 0 l 83 0 l 83 667 b 401 989 83 854 219 989 b 708 703 594 989 708 849 b 593 508 708 615 665 549 "},"˛":{"ha":411,"x_min":0,"x_max":0,"o":"m 208 -150 b 281 -211 208 -185 229 -211 b 321 -206 297 -211 310 -208 l 321 -319 b 256 -329 304 -325 282 -329 b 90 -194 161 -329 90 -278 b 219 0 90 -97 165 -33 l 321 0 b 208 -150 253 -43 208 -92 "},"¸":{"ha":489,"x_min":0,"x_max":0,"o":"m 246 -64 b 399 -203 331 -69 399 -108 b 231 -350 399 -287 328 -350 b 90 -314 172 -350 126 -337 l 139 -226 b 211 -246 153 -236 175 -246 b 285 -187 257 -246 285 -222 b 221 -135 285 -140 244 -135 b 175 -144 201 -135 186 -139 l 139 -97 l 188 0 l 278 0 l 246 -64 "},"":{"ha":431,"x_min":0,"x_max":0,"o":"m 340 -114 l 228 -321 l 90 -321 l 167 -114 "},"Ą":{"ha":972,"x_min":0,"x_max":0,"o":"m 939 0 b 826 -150 871 -43 826 -92 b 899 -211 826 -185 847 -211 b 939 -206 915 -211 928 -208 l 939 -319 b 874 -329 922 -325 900 -329 b 708 -194 779 -329 708 -278 b 838 0 708 -97 785 -33 l 751 0 l 686 193 l 286 193 l 221 0 l 21 0 l 371 972 l 601 972 l 951 0 l 939 0 m 629 361 l 486 782 l 343 361 "},"˜":{"ha":618,"x_min":0,"x_max":0,"o":"m 528 944 b 410 800 526 854 482 800 b 233 840 339 800 290 840 b 193 788 200 840 193 808 l 90 806 b 207 950 92 900 138 950 b 382 910 278 950 328 910 b 424 963 418 910 424 943 "},"`":{"ha":458,"x_min":0,"x_max":0,"o":"m 368 815 l 225 815 l 90 1010 l 276 1010 "},"´":{"ha":457,"x_min":0,"x_max":0,"o":"m 367 1010 l 232 815 l 90 815 l 181 1010 "},"ˆ":{"ha":657,"x_min":0,"x_max":0,"o":"m 411 815 l 329 926 l 247 815 l 90 815 l 244 1010 l 414 1010 l 567 815 "},"Ç":{"ha":964,"x_min":0,"x_max":0,"o":"m 550 161 b 779 265 651 161 729 203 l 936 163 b 551 -18 849 51 713 -17 l 528 -65 b 681 -204 613 -71 681 -110 b 513 -351 681 -289 611 -351 b 372 -315 454 -351 408 -339 l 421 -228 b 493 -247 436 -237 458 -247 b 567 -189 539 -247 567 -224 b 503 -136 567 -142 526 -136 b 457 -146 483 -136 468 -140 l 421 -99 l 465 -11 b 56 486 222 28 56 229 b 550 989 56 771 263 989 b 936 808 711 989 847 921 l 779 706 b 550 810 729 768 651 810 b 244 486 349 810 244 647 b 550 161 244 324 349 161 "},"˘":{"ha":622,"x_min":0,"x_max":0,"o":"m 532 1004 b 311 796 532 878 451 796 b 90 1004 171 796 90 878 l 214 1004 b 311 907 214 960 239 907 b 408 1004 383 907 408 960 "},"˙":{"ha":371,"x_min":0,"x_max":0,"o":"m 185 994 b 281 900 238 994 281 953 b 185 804 281 847 238 804 b 90 900 133 804 90 847 b 185 994 90 953 133 994 "},"Ę":{"ha":726,"x_min":0,"x_max":0,"o":"m 664 0 b 551 -150 594 -43 551 -92 b 624 -211 551 -185 572 -211 b 664 -206 640 -211 653 -208 l 664 -319 b 597 -329 646 -325 625 -329 b 433 -194 504 -329 433 -278 b 561 0 433 -97 508 -33 l 90 0 l 90 972 l 651 972 l 651 797 l 279 797 l 279 578 l 619 578 l 619 403 l 279 403 l 279 175 l 664 175 l 664 0 "},"¯":{"ha":585,"x_min":0,"x_max":0,"o":"m 494 968 l 494 832 l 90 832 l 90 968 "},"Į":{"ha":368,"x_min":0,"x_max":0,"o":"m 278 0 b 164 -150 208 -43 164 -92 b 236 -211 164 -185 185 -211 b 278 -206 254 -211 267 -208 l 278 -319 b 211 -329 260 -325 239 -329 b 47 -194 118 -329 47 -278 b 175 0 47 -97 122 -33 l 89 0 l 89 972 l 278 972 l 278 0 "},"Ş":{"ha":824,"x_min":0,"x_max":0,"o":"m 789 282 b 442 -17 789 133 686 -11 l 418 -65 b 572 -204 504 -71 572 -110 b 404 -351 572 -289 501 -351 b 263 -315 344 -351 299 -339 l 311 -228 b 385 -247 326 -237 349 -247 b 458 -189 431 -247 458 -224 b 393 -136 458 -142 418 -136 b 349 -146 375 -136 360 -140 l 313 -99 l 354 -14 b 35 218 203 4 75 78 l 217 275 b 425 147 231 219 289 147 b 600 268 522 147 600 185 b 336 410 600 365 490 372 b 75 692 140 458 75 557 b 418 989 75 875 215 989 b 750 760 581 989 708 908 l 568 715 b 408 824 556 767 506 824 b 261 704 329 824 261 782 b 475 558 261 594 385 579 b 789 282 706 506 789 439 "},"ˇ":{"ha":656,"x_min":0,"x_max":0,"o":"m 565 1010 l 413 815 l 243 815 l 90 1010 l 246 1010 l 328 897 l 410 1010 "},"˚":{"ha":496,"x_min":0,"x_max":0,"o":"m 249 1069 b 406 913 335 1069 406 999 b 249 754 406 825 335 754 b 90 913 161 754 90 825 b 249 1069 90 999 161 1069 m 249 842 b 319 913 288 842 319 874 b 249 983 319 951 288 983 b 176 913 208 983 176 951 b 249 842 176 874 208 842 "},"¨":{"ha":665,"x_min":0,"x_max":0,"o":"m 186 994 b 281 900 239 994 281 953 b 186 804 281 847 239 804 b 90 900 133 804 90 847 b 186 994 90 953 133 994 m 479 994 b 575 900 532 994 575 953 b 479 804 575 847 532 804 b 385 900 428 804 385 847 b 479 994 385 953 428 994 "},"Ų":{"ha":968,"x_min":0,"x_max":0,"o":"m 878 972 l 878 358 b 654 10 878 188 800 61 b 542 -150 585 -33 542 -92 b 614 -211 542 -185 563 -211 b 654 -206 631 -211 643 -208 l 654 -319 b 588 -329 636 -325 615 -329 b 424 -194 494 -329 424 -278 b 529 -17 424 -111 479 -51 b 485 -18 514 -17 500 -18 b 90 358 231 -18 90 129 l 90 972 l 279 972 l 279 383 b 485 161 279 221 378 161 b 689 383 590 161 689 221 l 689 972 "},"˝":{"ha":729,"x_min":0,"x_max":0,"o":"m 368 1010 l 233 815 l 90 815 l 182 1010 m 639 1010 l 504 815 l 363 815 l 453 1010 "},"ą":{"ha":757,"x_min":0,"x_max":0,"o":"m 674 0 b 561 -150 606 -43 561 -92 b 633 -211 561 -185 582 -211 b 674 -206 650 -211 664 -208 l 674 -319 b 608 -329 657 -325 636 -329 b 444 -194 515 -329 444 -278 b 572 0 444 -97 519 -33 l 499 0 l 499 75 b 293 -18 464 21 388 -18 b 42 189 186 -18 42 39 b 421 421 42 421 329 421 b 497 421 450 421 481 421 b 351 567 496 522 461 567 b 206 515 289 567 231 533 l 85 607 b 376 721 163 678 260 721 b 674 425 601 721 674 593 l 674 0 m 499 310 b 486 310 494 310 490 310 b 222 206 360 310 222 311 b 344 110 222 153 258 110 b 499 190 436 110 482 161 "},"ç":{"ha":750,"x_min":0,"x_max":0,"o":"m 414 151 b 576 242 488 151 544 188 l 729 154 b 418 -18 665 51 553 -15 l 394 -65 b 549 -204 481 -71 549 -110 b 381 -351 549 -289 478 -351 b 239 -315 321 -351 275 -339 l 288 -228 b 361 -247 303 -237 325 -247 b 435 -189 407 -247 435 -224 b 369 -136 435 -142 394 -136 b 325 -146 351 -136 336 -140 l 289 -99 l 333 -10 b 42 351 163 26 42 172 b 414 721 42 558 201 721 b 729 550 550 721 665 653 l 576 461 b 414 551 544 515 488 551 b 222 351 296 551 222 461 b 414 151 222 242 296 151 "},"ę":{"ha":797,"x_min":0,"x_max":0,"o":"m 401 721 b 751 283 614 721 783 561 l 229 283 b 429 139 254 189 332 139 b 586 208 510 139 565 182 l 728 125 b 517 -8 683 64 610 13 b 415 -150 454 -49 415 -96 b 489 -211 415 -185 438 -211 b 529 -206 506 -211 518 -208 l 529 -319 b 463 -329 511 -325 490 -329 b 299 -194 369 -329 299 -278 b 403 -17 299 -111 354 -53 b 42 351 183 -6 42 146 b 401 721 42 572 207 721 m 579 419 b 406 564 561 511 499 564 b 229 419 318 564 251 510 "},"į":{"ha":343,"x_min":0,"x_max":0,"o":"m 83 704 l 260 704 l 260 0 b 147 -150 190 -43 147 -92 b 219 -211 147 -185 168 -211 b 260 -206 236 -211 249 -208 l 260 -319 b 194 -329 243 -325 221 -329 b 29 -194 100 -329 29 -278 b 157 0 29 -97 104 -33 l 83 0 m 172 807 b 78 901 119 807 78 849 b 172 994 78 953 119 994 b 265 901 224 994 265 953 b 172 807 265 849 224 807 "},"ş":{"ha":657,"x_min":0,"x_max":0,"o":"m 622 217 b 356 -17 622 86 533 -7 l 332 -65 b 486 -204 418 -71 486 -110 b 317 -351 486 -289 415 -351 b 176 -315 258 -351 213 -339 l 225 -228 b 297 -247 240 -237 263 -247 b 372 -189 344 -247 372 -224 b 307 -136 372 -142 331 -136 b 261 -146 289 -136 274 -140 l 225 -99 l 268 -14 b 21 154 153 -1 49 53 l 190 207 b 328 131 197 178 225 131 b 443 204 400 131 443 157 b 258 286 443 271 340 268 b 51 500 121 314 51 379 b 328 721 51 633 164 721 b 599 539 450 721 569 661 l 438 500 b 329 572 431 536 394 572 b 225 500 276 572 225 553 b 375 421 225 438 318 433 b 622 217 547 383 622 336 "},"ų":{"ha":806,"x_min":0,"x_max":0,"o":"m 722 0 b 608 -150 653 -43 608 -92 b 682 -211 608 -185 631 -211 b 722 -206 699 -211 711 -208 l 722 -319 b 656 -329 704 -325 683 -329 b 492 -194 563 -329 492 -278 b 619 0 492 -97 567 -33 l 546 0 l 546 86 b 342 -18 507 28 444 -18 b 83 275 164 -18 83 126 l 83 704 l 260 704 l 260 313 b 396 154 260 222 297 154 b 546 313 501 154 546 231 l 546 704 l 722 704 l 722 0 "},"ď":{"ha":968,"x_min":0,"x_max":0,"o":"m 1107 972 l 994 765 l 857 765 l 933 972 m 786 972 l 786 0 l 610 0 l 610 82 b 385 -18 564 25 494 -18 b 42 351 167 -18 42 167 b 385 721 42 536 167 721 b 610 621 494 721 564 679 l 610 972 m 413 151 b 601 351 533 151 601 243 b 413 551 601 460 533 551 b 222 351 292 551 222 460 b 413 151 222 243 292 151 "},"ť":{"ha":531,"x_min":0,"x_max":0,"o":"m 671 989 l 558 782 l 421 782 l 497 989 m 318 543 l 318 286 b 426 158 318 206 329 158 b 468 161 439 158 456 160 l 468 0 b 394 -10 450 -6 431 -10 b 142 257 214 -10 142 111 l 142 543 l 42 543 l 42 704 l 142 704 l 142 851 l 318 851 l 318 704 l 468 704 l 468 543 "},"Ŀ":{"ha":701,"x_min":0,"x_max":0,"o":"m 500 388 b 404 483 447 388 404 431 b 500 579 404 536 447 579 b 596 483 553 579 596 536 b 500 388 596 431 553 388 m 653 175 l 653 0 l 90 0 l 90 972 l 278 972 l 278 175 "},"ŀ":{"ha":582,"x_min":0,"x_max":0,"o":"m 465 556 b 561 460 518 556 561 513 b 465 364 561 406 518 364 b 369 460 413 364 369 406 b 465 556 369 513 413 556 m 260 972 l 260 0 l 83 0 l 83 972 "},"ľ":{"ha":442,"x_min":0,"x_max":0,"o":"m 407 972 l 581 972 l 468 765 l 331 765 l 407 972 m 260 972 l 260 0 l 83 0 l 83 972 "}," ":{"ha":361,"x_min":0,"x_max":0,"o":""},"Á":{"ha":972,"x_min":0,"x_max":0,"o":"m 686 193 l 286 193 l 221 0 l 21 0 l 371 972 l 601 972 l 951 0 l 751 0 m 629 361 l 486 782 l 343 361 m 693 1288 l 558 1093 l 417 1093 l 507 1288 "},"Ă":{"ha":972,"x_min":0,"x_max":0,"o":"m 686 193 l 286 193 l 221 0 l 21 0 l 371 972 l 601 972 l 951 0 l 751 0 m 629 361 l 486 782 l 343 361 m 707 1282 b 486 1074 707 1156 626 1074 b 265 1282 346 1074 265 1156 l 389 1282 b 486 1185 389 1238 414 1185 b 583 1282 558 1185 583 1238 "},"Â":{"ha":972,"x_min":0,"x_max":0,"o":"m 686 193 l 286 193 l 221 0 l 21 0 l 371 972 l 601 972 l 951 0 l 751 0 m 629 361 l 486 782 l 343 361 m 569 1093 l 488 1204 l 406 1093 l 249 1093 l 403 1288 l 572 1288 l 725 1093 "},"À":{"ha":972,"x_min":0,"x_max":0,"o":"m 686 193 l 286 193 l 221 0 l 21 0 l 371 972 l 601 972 l 951 0 l 751 0 m 629 361 l 486 782 l 343 361 m 556 1093 l 413 1093 l 278 1288 l 464 1288 "},"Ä":{"ha":972,"x_min":0,"x_max":0,"o":"m 686 193 l 286 193 l 221 0 l 21 0 l 371 972 l 601 972 l 951 0 l 751 0 m 629 361 l 486 782 l 343 361 m 340 1272 b 435 1178 393 1272 435 1231 b 340 1082 435 1125 393 1082 b 244 1178 288 1082 244 1125 b 340 1272 244 1231 288 1272 m 633 1272 b 729 1178 686 1272 729 1231 b 633 1082 729 1125 686 1082 b 539 1178 582 1082 539 1125 b 633 1272 539 1231 582 1272 "},"Ā":{"ha":972,"x_min":0,"x_max":0,"o":"m 686 193 l 286 193 l 221 0 l 21 0 l 371 972 l 601 972 l 951 0 l 751 0 m 629 361 l 486 782 l 343 361 m 688 1246 l 688 1110 l 283 1110 l 283 1246 "},"Å":{"ha":972,"x_min":0,"x_max":0,"o":"m 686 193 l 286 193 l 221 0 l 21 0 l 371 972 l 601 972 l 951 0 l 751 0 m 629 361 l 486 782 l 343 361 m 486 1347 b 643 1190 572 1347 643 1276 b 486 1032 643 1103 572 1032 b 328 1190 399 1032 328 1103 b 486 1347 328 1276 399 1347 m 486 1119 b 557 1190 525 1119 557 1151 b 486 1261 557 1229 525 1261 b 414 1190 446 1261 414 1229 b 486 1119 414 1151 446 1119 "},"Ã":{"ha":972,"x_min":0,"x_max":0,"o":"m 686 193 l 286 193 l 221 0 l 21 0 l 371 972 l 601 972 l 951 0 l 751 0 m 629 361 l 486 782 l 343 361 m 706 1222 b 588 1078 704 1132 660 1078 b 411 1118 517 1078 468 1118 b 371 1065 378 1118 371 1086 l 268 1083 b 385 1228 269 1178 315 1228 b 560 1188 456 1228 506 1188 b 601 1240 596 1188 601 1221 "},"Ė":{"ha":726,"x_min":0,"x_max":0,"o":"m 664 175 l 664 0 l 90 0 l 90 972 l 651 972 l 651 797 l 278 797 l 278 578 l 619 578 l 619 403 l 278 403 l 278 175 m 376 1272 b 472 1178 429 1272 472 1231 b 376 1082 472 1125 429 1082 b 282 1178 325 1082 282 1125 b 376 1272 282 1231 325 1272 "},"Š":{"ha":824,"x_min":0,"x_max":0,"o":"m 475 558 b 789 282 706 506 789 439 b 426 -18 789 131 681 -18 b 35 218 244 -18 82 57 l 217 275 b 425 147 231 219 289 147 b 600 268 522 147 600 185 b 336 410 600 365 490 372 b 75 692 140 458 75 557 b 418 989 75 875 215 989 b 750 760 581 989 708 908 l 567 715 b 408 824 556 767 506 824 b 261 704 328 824 261 782 b 475 558 261 594 385 579 m 649 1288 l 496 1093 l 326 1093 l 174 1288 l 329 1288 l 411 1175 l 493 1288 "},"Ű":{"ha":968,"x_min":0,"x_max":0,"o":"m 878 972 l 878 358 b 485 -18 878 129 739 -18 b 90 358 231 -18 90 129 l 90 972 l 279 972 l 279 383 b 485 161 279 221 378 161 b 689 383 590 161 689 221 l 689 972 m 543 1288 l 408 1093 l 265 1093 l 357 1288 m 814 1288 l 679 1093 l 538 1093 l 628 1288 "},"Ǽ":{"ha":1310,"x_min":0,"x_max":0,"o":"m 1247 175 l 1247 0 l 674 0 l 674 193 l 311 193 l 219 0 l 21 0 l 494 972 l 1233 972 l 1233 797 l 861 797 l 861 578 l 1203 578 l 1203 403 l 861 403 l 861 175 m 674 361 l 674 797 l 593 797 l 389 361 m 1008 1288 l 874 1093 l 732 1093 l 822 1288 "},"Ć":{"ha":964,"x_min":0,"x_max":0,"o":"m 550 161 b 781 265 651 161 729 203 l 936 163 b 550 -18 849 51 713 -18 b 56 486 263 -18 56 201 b 550 989 56 771 263 989 b 936 808 713 989 849 921 l 781 706 b 550 810 729 768 651 810 b 244 486 349 810 244 647 b 550 161 244 324 349 161 m 717 1288 l 582 1093 l 440 1093 l 531 1288 "},"Č":{"ha":964,"x_min":0,"x_max":0,"o":"m 550 161 b 781 265 651 161 729 203 l 936 163 b 550 -18 849 51 713 -18 b 56 486 263 -18 56 201 b 550 989 56 771 263 989 b 936 808 713 989 849 921 l 781 706 b 550 810 729 768 651 810 b 244 486 349 810 244 647 b 550 161 244 324 349 161 m 761 1288 l 608 1093 l 439 1093 l 286 1288 l 442 1288 l 524 1175 l 606 1288 "},"Ĉ":{"ha":964,"x_min":0,"x_max":0,"o":"m 550 161 b 781 265 651 161 729 203 l 936 163 b 550 -18 849 51 713 -18 b 56 486 263 -18 56 201 b 550 989 56 771 263 989 b 936 808 713 989 849 921 l 781 706 b 550 810 729 768 651 810 b 244 486 349 810 244 647 b 550 161 244 324 349 161 m 606 1093 l 524 1204 l 442 1093 l 285 1093 l 439 1288 l 608 1288 l 761 1093 "},"Ċ":{"ha":964,"x_min":0,"x_max":0,"o":"m 550 161 b 781 265 651 161 729 203 l 936 163 b 550 -18 849 51 713 -18 b 56 486 263 -18 56 201 b 550 989 56 771 263 989 b 936 808 713 989 849 921 l 781 706 b 550 810 729 768 651 810 b 244 486 349 810 244 647 b 550 161 244 324 349 161 m 522 1272 b 618 1178 575 1272 618 1231 b 522 1082 618 1125 575 1082 b 428 1178 471 1082 428 1125 b 522 1272 428 1231 471 1272 "},"Ď":{"ha":965,"x_min":0,"x_max":0,"o":"m 393 972 b 910 486 717 972 910 772 b 393 0 910 200 717 0 l 90 0 l 90 972 l 393 972 m 393 175 b 721 486 569 175 721 269 b 393 797 721 703 569 797 l 279 797 l 279 175 l 393 175 m 710 1288 l 557 1093 l 388 1093 l 235 1288 l 390 1288 l 472 1175 l 554 1288 "},"É":{"ha":726,"x_min":0,"x_max":0,"o":"m 664 175 l 664 0 l 90 0 l 90 972 l 651 972 l 651 797 l 278 797 l 278 578 l 619 578 l 619 403 l 278 403 l 278 175 m 571 1288 l 436 1093 l 294 1093 l 385 1288 "},"Ĕ":{"ha":726,"x_min":0,"x_max":0,"o":"m 664 175 l 664 0 l 90 0 l 90 972 l 651 972 l 651 797 l 278 797 l 278 578 l 619 578 l 619 403 l 278 403 l 278 175 m 597 1282 b 376 1074 597 1156 517 1074 b 156 1282 236 1074 156 1156 l 279 1282 b 376 1185 279 1238 304 1185 b 474 1282 449 1185 474 1238 "},"Ě":{"ha":726,"x_min":0,"x_max":0,"o":"m 664 175 l 664 0 l 90 0 l 90 972 l 651 972 l 651 797 l 278 797 l 278 578 l 619 578 l 619 403 l 278 403 l 278 175 m 614 1288 l 461 1093 l 292 1093 l 139 1288 l 294 1288 l 376 1175 l 458 1288 "},"Ê":{"ha":726,"x_min":0,"x_max":0,"o":"m 664 175 l 664 0 l 90 0 l 90 972 l 651 972 l 651 797 l 278 797 l 278 578 l 619 578 l 619 403 l 278 403 l 278 175 m 460 1093 l 378 1204 l 296 1093 l 139 1093 l 293 1288 l 463 1288 l 615 1093 "},"Ë":{"ha":726,"x_min":0,"x_max":0,"o":"m 664 175 l 664 0 l 90 0 l 90 972 l 651 972 l 651 797 l 278 797 l 278 578 l 619 578 l 619 403 l 278 403 l 278 175 m 231 1272 b 325 1178 283 1272 325 1231 b 231 1082 325 1125 283 1082 b 135 1178 178 1082 135 1125 b 231 1272 135 1231 178 1272 m 524 1272 b 619 1178 576 1272 619 1231 b 524 1082 619 1125 576 1082 b 429 1178 472 1082 429 1125 b 524 1272 429 1231 472 1272 "},"È":{"ha":726,"x_min":0,"x_max":0,"o":"m 664 175 l 664 0 l 90 0 l 90 972 l 651 972 l 651 797 l 278 797 l 278 578 l 619 578 l 619 403 l 278 403 l 278 175 m 460 1093 l 317 1093 l 182 1288 l 368 1288 "},"Ē":{"ha":726,"x_min":0,"x_max":0,"o":"m 664 175 l 664 0 l 90 0 l 90 972 l 651 972 l 651 797 l 278 797 l 278 578 l 619 578 l 619 403 l 278 403 l 278 175 m 579 1246 l 579 1110 l 175 1110 l 175 1246 "},"Ğ":{"ha":1072,"x_min":0,"x_max":0,"o":"m 996 550 l 996 0 l 894 0 l 869 139 b 550 -18 804 44 701 -18 b 56 486 261 -18 56 201 b 550 989 56 771 261 989 b 935 810 711 989 847 921 l 779 706 b 550 810 728 768 651 810 b 244 486 349 810 244 647 b 550 163 244 324 349 163 b 839 386 719 163 811 261 l 563 386 l 563 550 m 754 1282 b 533 1074 754 1156 674 1074 b 313 1282 393 1074 313 1156 l 436 1282 b 533 1185 436 1238 461 1185 b 631 1282 606 1185 631 1238 "},"Ĝ":{"ha":1072,"x_min":0,"x_max":0,"o":"m 996 550 l 996 0 l 894 0 l 869 139 b 550 -18 804 44 701 -18 b 56 486 261 -18 56 201 b 550 989 56 771 261 989 b 935 810 711 989 847 921 l 779 706 b 550 810 728 768 651 810 b 244 486 349 810 244 647 b 550 163 244 324 349 163 b 839 386 719 163 811 261 l 563 386 l 563 550 m 617 1093 l 535 1204 l 453 1093 l 296 1093 l 450 1288 l 619 1288 l 772 1093 "},"Ģ":{"ha":1072,"x_min":0,"x_max":0,"o":"m 996 550 l 996 0 l 894 0 l 869 139 b 550 -18 804 44 701 -18 b 56 486 261 -18 56 201 b 550 989 56 771 261 989 b 935 810 711 989 847 921 l 779 706 b 550 810 728 768 651 810 b 244 486 349 810 244 647 b 550 163 244 324 349 163 b 839 386 719 163 811 261 l 563 386 l 563 550 m 631 -114 l 518 -321 l 381 -321 l 457 -114 "},"Ġ":{"ha":1072,"x_min":0,"x_max":0,"o":"m 996 550 l 996 0 l 894 0 l 869 139 b 550 -18 804 44 701 -18 b 56 486 261 -18 56 201 b 550 989 56 771 261 989 b 935 810 711 989 847 921 l 779 706 b 550 810 728 768 651 810 b 244 486 349 810 244 647 b 550 163 244 324 349 163 b 839 386 719 163 811 261 l 563 386 l 563 550 m 533 1272 b 629 1178 586 1272 629 1231 b 533 1082 629 1125 586 1082 b 439 1178 482 1082 439 1125 b 533 1272 439 1231 482 1272 "},"Ĥ":{"ha":961,"x_min":0,"x_max":0,"o":"m 871 972 l 871 0 l 682 0 l 682 403 l 279 403 l 279 0 l 90 0 l 90 972 l 279 972 l 279 578 l 682 578 l 682 972 m 563 1093 l 481 1204 l 399 1093 l 242 1093 l 396 1288 l 565 1288 l 718 1093 "},"Í":{"ha":368,"x_min":0,"x_max":0,"o":"m 278 972 l 278 0 l 90 0 l 90 972 m 389 1288 l 254 1093 l 113 1093 l 203 1288 "},"Ĭ":{"ha":368,"x_min":0,"x_max":0,"o":"m 278 972 l 278 0 l 90 0 l 90 972 m 407 1282 b 186 1074 407 1156 326 1074 b -35 1282 46 1074 -35 1156 l 89 1282 b 186 1185 89 1238 114 1185 b 283 1282 258 1185 283 1238 "},"Î":{"ha":368,"x_min":0,"x_max":0,"o":"m 278 972 l 278 0 l 90 0 l 90 972 m 267 1093 l 185 1204 l 103 1093 l -54 1093 l 100 1288 l 269 1288 l 422 1093 "},"Ï":{"ha":368,"x_min":0,"x_max":0,"o":"m 278 972 l 278 0 l 90 0 l 90 972 m 38 1272 b 132 1178 90 1272 132 1231 b 38 1082 132 1125 90 1082 b -58 1178 -15 1082 -58 1125 b 38 1272 -58 1231 -15 1272 m 331 1272 b 426 1178 383 1272 426 1231 b 331 1082 426 1125 383 1082 b 236 1178 279 1082 236 1125 b 331 1272 236 1231 279 1272 "},"İ":{"ha":368,"x_min":0,"x_max":0,"o":"m 278 972 l 278 0 l 90 0 l 90 972 m 183 1272 b 279 1178 236 1272 279 1231 b 183 1082 279 1125 236 1082 b 89 1178 132 1082 89 1125 b 183 1272 89 1231 132 1272 "},"Ì":{"ha":368,"x_min":0,"x_max":0,"o":"m 278 972 l 278 0 l 90 0 l 90 972 m 254 1093 l 111 1093 l -24 1288 l 163 1288 "},"Ī":{"ha":368,"x_min":0,"x_max":0,"o":"m 278 972 l 278 0 l 90 0 l 90 972 m 386 1246 l 386 1110 l -18 1110 l -18 1246 "},"Ĩ":{"ha":368,"x_min":0,"x_max":0,"o":"m 278 972 l 278 0 l 90 0 l 90 972 m 403 1222 b 285 1078 401 1132 357 1078 b 108 1118 214 1078 165 1118 b 68 1065 75 1118 68 1086 l -35 1083 b 82 1228 -33 1178 13 1228 b 257 1188 153 1228 203 1188 b 299 1240 293 1188 299 1221 "},"Ĳ":{"ha":1140,"x_min":0,"x_max":0,"o":"m 278 972 l 278 0 l 90 0 l 90 972 m 1050 972 l 1050 338 b 707 -18 1050 131 956 -18 b 361 264 501 -18 374 106 l 551 299 b 707 161 556 246 592 161 b 861 338 829 161 861 240 l 861 972 "},"Ĵ":{"ha":807,"x_min":0,"x_max":0,"o":"m 717 972 l 717 338 b 374 -18 717 131 622 -18 b 28 264 168 -18 40 106 l 218 299 b 374 161 222 246 258 161 b 528 338 496 161 528 240 l 528 972 m 701 1093 l 619 1204 l 538 1093 l 381 1093 l 535 1288 l 704 1288 l 857 1093 "},"Ķ":{"ha":885,"x_min":0,"x_max":0,"o":"m 636 0 l 278 451 l 278 0 l 90 0 l 90 972 l 278 972 l 278 508 l 613 972 l 828 972 l 465 493 l 864 0 m 546 -114 l 433 -321 l 296 -321 l 372 -114 "},"Ĺ":{"ha":701,"x_min":0,"x_max":0,"o":"m 653 175 l 653 0 l 90 0 l 90 972 l 278 972 l 278 175 m 399 1288 l 264 1093 l 122 1093 l 213 1288 "},"Ľ":{"ha":701,"x_min":0,"x_max":0,"o":"m 599 972 l 486 765 l 349 765 l 425 972 m 653 175 l 653 0 l 90 0 l 90 972 l 278 972 l 278 175 "},"Ļ":{"ha":701,"x_min":0,"x_max":0,"o":"m 653 175 l 653 0 l 90 0 l 90 972 l 278 972 l 278 175 m 468 -114 l 356 -321 l 218 -321 l 294 -114 "},"Ń":{"ha":971,"x_min":0,"x_max":0,"o":"m 881 972 l 881 0 l 710 0 l 279 643 l 279 0 l 90 0 l 90 972 l 261 972 l 692 329 l 692 972 m 679 1288 l 544 1093 l 403 1093 l 493 1288 "},"Ň":{"ha":971,"x_min":0,"x_max":0,"o":"m 881 972 l 881 0 l 710 0 l 279 643 l 279 0 l 90 0 l 90 972 l 261 972 l 692 329 l 692 972 m 722 1288 l 569 1093 l 400 1093 l 247 1288 l 403 1288 l 485 1175 l 567 1288 "},"Ņ":{"ha":971,"x_min":0,"x_max":0,"o":"m 881 972 l 881 0 l 710 0 l 279 643 l 279 0 l 90 0 l 90 972 l 261 972 l 692 329 l 692 972 m 582 -114 l 469 -321 l 332 -321 l 408 -114 "},"Ñ":{"ha":971,"x_min":0,"x_max":0,"o":"m 881 972 l 881 0 l 710 0 l 279 643 l 279 0 l 90 0 l 90 972 l 261 972 l 692 329 l 692 972 m 704 1222 b 586 1078 703 1132 658 1078 b 410 1118 515 1078 467 1118 b 369 1065 376 1118 369 1086 l 267 1083 b 383 1228 268 1178 314 1228 b 558 1188 454 1228 504 1188 b 600 1240 594 1188 600 1221 "},"Ó":{"ha":1100,"x_min":0,"x_max":0,"o":"m 550 989 b 1044 486 838 989 1044 771 b 550 -18 1044 201 838 -18 b 56 486 263 -18 56 201 b 550 989 56 771 263 989 m 550 161 b 856 486 751 161 856 324 b 550 810 856 647 751 810 b 244 486 349 810 244 647 b 550 161 244 324 349 161 m 757 1288 l 622 1093 l 481 1093 l 571 1288 "},"Ŏ":{"ha":1100,"x_min":0,"x_max":0,"o":"m 550 989 b 1044 486 838 989 1044 771 b 550 -18 1044 201 838 -18 b 56 486 263 -18 56 201 b 550 989 56 771 263 989 m 550 161 b 856 486 751 161 856 324 b 550 810 856 647 751 810 b 244 486 349 810 244 647 b 550 161 244 324 349 161 m 771 1282 b 550 1074 771 1156 690 1074 b 329 1282 410 1074 329 1156 l 453 1282 b 550 1185 453 1238 478 1185 b 647 1282 622 1185 647 1238 "},"Ô":{"ha":1100,"x_min":0,"x_max":0,"o":"m 550 989 b 1044 486 838 989 1044 771 b 550 -18 1044 201 838 -18 b 56 486 263 -18 56 201 b 550 989 56 771 263 989 m 550 161 b 856 486 751 161 856 324 b 550 810 856 647 751 810 b 244 486 349 810 244 647 b 550 161 244 324 349 161 m 633 1093 l 551 1204 l 469 1093 l 313 1093 l 467 1288 l 636 1288 l 789 1093 "},"Ö":{"ha":1100,"x_min":0,"x_max":0,"o":"m 550 989 b 1044 486 838 989 1044 771 b 550 -18 1044 201 838 -18 b 56 486 263 -18 56 201 b 550 989 56 771 263 989 m 550 161 b 856 486 751 161 856 324 b 550 810 856 647 751 810 b 244 486 349 810 244 647 b 550 161 244 324 349 161 m 404 1272 b 499 1178 457 1272 499 1231 b 404 1082 499 1125 457 1082 b 308 1178 351 1082 308 1125 b 404 1272 308 1231 351 1272 m 697 1272 b 793 1178 750 1272 793 1231 b 697 1082 793 1125 750 1082 b 603 1178 646 1082 603 1125 b 697 1272 603 1231 646 1272 "},"Ò":{"ha":1100,"x_min":0,"x_max":0,"o":"m 550 989 b 1044 486 838 989 1044 771 b 550 -18 1044 201 838 -18 b 56 486 263 -18 56 201 b 550 989 56 771 263 989 m 550 161 b 856 486 751 161 856 324 b 550 810 856 647 751 810 b 244 486 349 810 244 647 b 550 161 244 324 349 161 m 619 1093 l 476 1093 l 342 1288 l 528 1288 "},"Ő":{"ha":1100,"x_min":0,"x_max":0,"o":"m 550 989 b 1044 486 838 989 1044 771 b 550 -18 1044 201 838 -18 b 56 486 263 -18 56 201 b 550 989 56 771 263 989 m 550 161 b 856 486 751 161 856 324 b 550 810 856 647 751 810 b 244 486 349 810 244 647 b 550 161 244 324 349 161 m 622 1288 l 488 1093 l 344 1093 l 436 1288 m 893 1288 l 758 1093 l 617 1093 l 707 1288 "},"Ō":{"ha":1100,"x_min":0,"x_max":0,"o":"m 550 989 b 1044 486 838 989 1044 771 b 550 -18 1044 201 838 -18 b 56 486 263 -18 56 201 b 550 989 56 771 263 989 m 550 161 b 856 486 751 161 856 324 b 550 810 856 647 751 810 b 244 486 349 810 244 647 b 550 161 244 324 349 161 m 753 1246 l 753 1110 l 349 1110 l 349 1246 "},"Ǿ":{"ha":1100,"x_min":0,"x_max":0,"o":"m 953 786 b 1043 486 1011 703 1043 600 b 550 -18 1043 201 838 -18 b 213 110 415 -18 299 31 l 128 33 l 61 107 l 147 186 b 56 486 89 268 56 372 b 550 989 56 771 263 989 b 888 861 685 989 801 942 l 972 939 l 1040 864 l 953 786 m 244 486 b 288 314 244 426 258 365 l 751 736 b 550 810 701 782 633 810 b 244 486 349 810 244 647 m 550 161 b 856 486 750 161 856 324 b 813 657 856 546 840 606 l 350 235 b 550 161 399 190 467 161 m 757 1288 l 622 1093 l 481 1093 l 571 1288 "},"Õ":{"ha":1100,"x_min":0,"x_max":0,"o":"m 550 989 b 1044 486 838 989 1044 771 b 550 -18 1044 201 838 -18 b 56 486 263 -18 56 201 b 550 989 56 771 263 989 m 550 161 b 856 486 751 161 856 324 b 550 810 856 647 751 810 b 244 486 349 810 244 647 b 550 161 244 324 349 161 m 769 1222 b 651 1078 768 1132 724 1078 b 475 1118 581 1078 532 1118 b 435 1065 442 1118 435 1086 l 332 1083 b 449 1228 333 1178 379 1228 b 624 1188 519 1228 569 1188 b 665 1240 660 1188 665 1221 "},"Ŕ":{"ha":878,"x_min":0,"x_max":0,"o":"m 642 0 l 442 350 b 426 350 438 350 432 350 l 278 350 l 278 0 l 90 0 l 90 972 l 426 972 b 789 654 644 972 789 839 b 618 389 789 532 724 438 l 857 0 m 278 513 l 426 513 b 596 654 524 513 596 557 b 426 797 596 742 532 797 l 278 797 m 597 1288 l 463 1093 l 321 1093 l 411 1288 "},"Ř":{"ha":878,"x_min":0,"x_max":0,"o":"m 642 0 l 442 350 b 426 350 438 350 432 350 l 278 350 l 278 0 l 90 0 l 90 972 l 426 972 b 789 654 644 972 789 839 b 618 389 789 532 724 438 l 857 0 m 278 513 l 426 513 b 596 654 524 513 596 557 b 426 797 596 742 532 797 l 278 797 m 656 1288 l 503 1093 l 333 1093 l 181 1288 l 336 1288 l 418 1175 l 500 1288 "},"Ŗ":{"ha":878,"x_min":0,"x_max":0,"o":"m 642 0 l 442 350 b 426 350 438 350 432 350 l 278 350 l 278 0 l 90 0 l 90 972 l 426 972 b 789 654 644 972 789 839 b 618 389 789 532 724 438 l 857 0 m 278 513 l 426 513 b 596 654 524 513 596 557 b 426 797 596 742 532 797 l 278 797 m 557 -114 l 444 -321 l 307 -321 l 383 -114 "},"Ś":{"ha":824,"x_min":0,"x_max":0,"o":"m 475 558 b 789 282 706 506 789 439 b 426 -18 789 131 681 -18 b 35 218 244 -18 82 57 l 217 275 b 425 147 231 219 289 147 b 600 268 522 147 600 185 b 336 410 600 365 490 372 b 75 692 140 458 75 557 b 418 989 75 875 215 989 b 750 760 581 989 708 908 l 567 715 b 408 824 556 767 506 824 b 261 704 328 824 261 782 b 475 558 261 594 385 579 m 606 1288 l 471 1093 l 329 1093 l 419 1288 "},"Ŝ":{"ha":824,"x_min":0,"x_max":0,"o":"m 475 558 b 789 282 706 506 789 439 b 426 -18 789 131 681 -18 b 35 218 244 -18 82 57 l 217 275 b 425 147 231 219 289 147 b 600 268 522 147 600 185 b 336 410 600 365 490 372 b 75 692 140 458 75 557 b 418 989 75 875 215 989 b 750 760 581 989 708 908 l 567 715 b 408 824 556 767 506 824 b 261 704 328 824 261 782 b 475 558 261 594 385 579 m 494 1093 l 413 1204 l 331 1093 l 174 1093 l 328 1288 l 497 1288 l 650 1093 "},"Ș":{"ha":824,"x_min":0,"x_max":0,"o":"m 475 558 b 789 282 706 506 789 439 b 426 -18 789 131 681 -18 b 35 218 244 -18 82 57 l 217 275 b 425 147 231 219 289 147 b 600 268 522 147 600 185 b 336 410 600 365 490 372 b 75 692 140 458 75 557 b 418 989 75 875 215 989 b 750 760 581 989 708 908 l 567 715 b 408 824 556 767 506 824 b 261 704 328 824 261 782 b 475 558 261 594 385 579 m 499 -114 l 386 -321 l 249 -321 l 325 -114 "},"Ť":{"ha":753,"x_min":0,"x_max":0,"o":"m 704 797 l 471 797 l 471 0 l 282 0 l 282 797 l 49 797 l 49 972 l 704 972 m 614 1288 l 461 1093 l 292 1093 l 139 1288 l 294 1288 l 376 1175 l 458 1288 "},"Ţ":{"ha":753,"x_min":0,"x_max":0,"o":"m 704 797 l 471 797 l 471 0 l 282 0 l 282 797 l 49 797 l 49 972 l 704 972 m 460 -114 l 347 -321 l 210 -321 l 286 -114 "},"Ú":{"ha":968,"x_min":0,"x_max":0,"o":"m 878 972 l 878 358 b 485 -18 878 129 739 -18 b 90 358 231 -18 90 129 l 90 972 l 279 972 l 279 383 b 485 161 279 221 378 161 b 689 383 590 161 689 221 l 689 972 m 692 1288 l 557 1093 l 415 1093 l 506 1288 "},"Ŭ":{"ha":968,"x_min":0,"x_max":0,"o":"m 878 972 l 878 358 b 485 -18 878 129 739 -18 b 90 358 231 -18 90 129 l 90 972 l 279 972 l 279 383 b 485 161 279 221 378 161 b 689 383 590 161 689 221 l 689 972 m 704 1282 b 483 1074 704 1156 624 1074 b 263 1282 343 1074 263 1156 l 386 1282 b 483 1185 386 1238 411 1185 b 581 1282 556 1185 581 1238 "},"Û":{"ha":968,"x_min":0,"x_max":0,"o":"m 878 972 l 878 358 b 485 -18 878 129 739 -18 b 90 358 231 -18 90 129 l 90 972 l 279 972 l 279 383 b 485 161 279 221 378 161 b 689 383 590 161 689 221 l 689 972 m 567 1093 l 485 1204 l 403 1093 l 246 1093 l 400 1288 l 569 1288 l 722 1093 "},"Ü":{"ha":968,"x_min":0,"x_max":0,"o":"m 878 972 l 878 358 b 485 -18 878 129 739 -18 b 90 358 231 -18 90 129 l 90 972 l 279 972 l 279 383 b 485 161 279 221 378 161 b 689 383 590 161 689 221 l 689 972 m 338 1272 b 432 1178 390 1272 432 1231 b 338 1082 432 1125 390 1082 b 242 1178 285 1082 242 1125 b 338 1272 242 1231 285 1272 m 631 1272 b 726 1178 683 1272 726 1231 b 631 1082 726 1125 683 1082 b 536 1178 579 1082 536 1125 b 631 1272 536 1231 579 1272 "},"Ù":{"ha":968,"x_min":0,"x_max":0,"o":"m 878 972 l 878 358 b 485 -18 878 129 739 -18 b 90 358 231 -18 90 129 l 90 972 l 279 972 l 279 383 b 485 161 279 221 378 161 b 689 383 590 161 689 221 l 689 972 m 581 1093 l 438 1093 l 303 1288 l 489 1288 "},"Ū":{"ha":968,"x_min":0,"x_max":0,"o":"m 878 972 l 878 358 b 485 -18 878 129 739 -18 b 90 358 231 -18 90 129 l 90 972 l 279 972 l 279 383 b 485 161 279 221 378 161 b 689 383 590 161 689 221 l 689 972 m 686 1246 l 686 1110 l 282 1110 l 282 1246 "},"Ů":{"ha":968,"x_min":0,"x_max":0,"o":"m 878 972 l 878 358 b 485 -18 878 129 739 -18 b 90 358 231 -18 90 129 l 90 972 l 279 972 l 279 383 b 485 161 279 221 378 161 b 689 383 590 161 689 221 l 689 972 m 485 1347 b 642 1190 571 1347 642 1276 b 485 1032 642 1103 571 1032 b 326 1190 397 1032 326 1103 b 485 1347 326 1276 397 1347 m 485 1119 b 556 1190 524 1119 556 1151 b 485 1261 556 1229 524 1261 b 413 1190 444 1261 413 1229 b 485 1119 413 1151 444 1119 "},"Ũ":{"ha":968,"x_min":0,"x_max":0,"o":"m 878 972 l 878 358 b 485 -18 878 129 739 -18 b 90 358 231 -18 90 129 l 90 972 l 279 972 l 279 383 b 485 161 279 221 378 161 b 689 383 590 161 689 221 l 689 972 m 703 1222 b 585 1078 701 1132 657 1078 b 408 1118 514 1078 465 1118 b 368 1065 375 1118 368 1086 l 265 1083 b 382 1228 267 1178 313 1228 b 557 1188 453 1228 503 1188 b 599 1240 593 1188 599 1221 "},"Ẃ":{"ha":1383,"x_min":0,"x_max":0,"o":"m 1363 972 l 1050 0 l 881 0 l 692 639 l 503 0 l 333 0 l 21 972 l 221 972 l 424 306 l 619 972 l 764 972 l 960 304 l 1163 972 m 913 1288 l 778 1093 l 636 1093 l 726 1288 "},"Ŵ":{"ha":1383,"x_min":0,"x_max":0,"o":"m 1363 972 l 1050 0 l 881 0 l 692 639 l 503 0 l 333 0 l 21 972 l 221 972 l 424 306 l 619 972 l 764 972 l 960 304 l 1163 972 m 774 1093 l 692 1204 l 610 1093 l 453 1093 l 607 1288 l 776 1288 l 929 1093 "},"Ẅ":{"ha":1383,"x_min":0,"x_max":0,"o":"m 1363 972 l 1050 0 l 881 0 l 692 639 l 503 0 l 333 0 l 21 972 l 221 972 l 424 306 l 619 972 l 764 972 l 960 304 l 1163 972 m 546 1272 b 640 1178 599 1272 640 1231 b 546 1082 640 1125 599 1082 b 450 1178 493 1082 450 1125 b 546 1272 450 1231 493 1272 m 839 1272 b 935 1178 892 1272 935 1231 b 839 1082 935 1125 892 1082 b 744 1178 788 1082 744 1125 b 839 1272 744 1231 788 1272 "},"Ẁ":{"ha":1383,"x_min":0,"x_max":0,"o":"m 1363 972 l 1050 0 l 881 0 l 692 639 l 503 0 l 333 0 l 21 972 l 221 972 l 424 306 l 619 972 l 764 972 l 960 304 l 1163 972 m 761 1093 l 618 1093 l 483 1288 l 669 1288 "},"Ý":{"ha":956,"x_min":0,"x_max":0,"o":"m 572 364 l 572 0 l 383 0 l 383 364 l 21 972 l 228 972 l 478 532 l 729 972 l 935 972 m 671 1288 l 536 1093 l 394 1093 l 485 1288 "},"Ŷ":{"ha":956,"x_min":0,"x_max":0,"o":"m 572 364 l 572 0 l 383 0 l 383 364 l 21 972 l 228 972 l 478 532 l 729 972 l 935 972 m 561 1093 l 479 1204 l 397 1093 l 240 1093 l 394 1288 l 564 1288 l 717 1093 "},"Ÿ":{"ha":956,"x_min":0,"x_max":0,"o":"m 572 364 l 572 0 l 383 0 l 383 364 l 21 972 l 228 972 l 478 532 l 729 972 l 935 972 m 332 1272 b 426 1178 385 1272 426 1231 b 332 1082 426 1125 385 1082 b 236 1178 279 1082 236 1125 b 332 1272 236 1231 279 1272 m 625 1272 b 721 1178 678 1272 721 1231 b 625 1082 721 1125 678 1082 b 531 1178 574 1082 531 1125 b 625 1272 531 1231 574 1272 "},"Ỳ":{"ha":956,"x_min":0,"x_max":0,"o":"m 572 364 l 572 0 l 383 0 l 383 364 l 21 972 l 228 972 l 478 532 l 729 972 l 935 972 m 561 1093 l 418 1093 l 283 1288 l 469 1288 "},"Ź":{"ha":808,"x_min":0,"x_max":0,"o":"m 760 175 l 760 0 l 49 0 l 49 150 l 517 797 l 74 797 l 74 972 l 747 972 l 747 822 l 292 175 m 597 1288 l 463 1093 l 321 1093 l 411 1288 "},"Ž":{"ha":808,"x_min":0,"x_max":0,"o":"m 760 175 l 760 0 l 49 0 l 49 150 l 517 797 l 74 797 l 74 972 l 747 972 l 747 822 l 292 175 m 642 1288 l 489 1093 l 319 1093 l 167 1288 l 322 1288 l 404 1175 l 486 1288 "},"Ż":{"ha":808,"x_min":0,"x_max":0,"o":"m 760 175 l 760 0 l 49 0 l 49 150 l 517 797 l 74 797 l 74 972 l 747 972 l 747 822 l 292 175 m 404 1272 b 500 1178 457 1272 500 1231 b 404 1082 500 1125 457 1082 b 310 1178 353 1082 310 1125 b 404 1272 310 1231 353 1272 "},"á":{"ha":757,"x_min":0,"x_max":0,"o":"m 376 721 b 674 425 600 721 674 593 l 674 0 l 497 0 l 497 75 b 292 -18 464 21 386 -18 b 42 189 186 -18 42 39 b 421 421 42 421 328 421 b 497 421 449 421 481 421 b 351 567 496 522 460 567 b 204 515 288 567 231 533 l 83 607 b 376 721 161 678 258 721 m 497 310 b 486 310 493 310 489 310 b 222 206 360 310 222 311 b 344 110 222 153 257 110 b 497 190 435 110 482 161 m 565 1010 l 431 815 l 289 815 l 379 1010 "},"ă":{"ha":757,"x_min":0,"x_max":0,"o":"m 376 721 b 674 425 600 721 674 593 l 674 0 l 497 0 l 497 75 b 292 -18 464 21 386 -18 b 42 189 186 -18 42 39 b 421 421 42 421 328 421 b 497 421 449 421 481 421 b 351 567 496 522 460 567 b 204 515 288 567 231 533 l 83 607 b 376 721 161 678 258 721 m 497 310 b 486 310 493 310 489 310 b 222 206 360 310 222 311 b 344 110 222 153 257 110 b 497 190 435 110 482 161 m 606 1004 b 385 796 606 878 525 796 b 164 1004 244 796 164 878 l 288 1004 b 385 907 288 960 313 907 b 482 1004 457 907 482 960 "},"â":{"ha":757,"x_min":0,"x_max":0,"o":"m 376 721 b 674 425 600 721 674 593 l 674 0 l 497 0 l 497 75 b 292 -18 464 21 386 -18 b 42 189 186 -18 42 39 b 421 421 42 421 328 421 b 497 421 449 421 481 421 b 351 567 496 522 460 567 b 204 515 288 567 231 533 l 83 607 b 376 721 161 678 258 721 m 497 310 b 486 310 493 310 489 310 b 222 206 360 310 222 311 b 344 110 222 153 257 110 b 497 190 435 110 482 161 m 468 815 l 386 926 l 304 815 l 147 815 l 301 1010 l 471 1010 l 624 815 "},"ä":{"ha":757,"x_min":0,"x_max":0,"o":"m 376 721 b 674 425 600 721 674 593 l 674 0 l 497 0 l 497 75 b 292 -18 464 21 386 -18 b 42 189 186 -18 42 39 b 421 421 42 421 328 421 b 497 421 449 421 481 421 b 351 567 496 522 460 567 b 204 515 288 567 231 533 l 83 607 b 376 721 161 678 258 721 m 497 310 b 486 310 493 310 489 310 b 222 206 360 310 222 311 b 344 110 222 153 257 110 b 497 190 435 110 482 161 m 239 994 b 333 900 292 994 333 953 b 239 804 333 847 292 804 b 143 900 186 804 143 847 b 239 994 143 953 186 994 m 532 994 b 628 900 585 994 628 953 b 532 804 628 847 585 804 b 438 900 481 804 438 847 b 532 994 438 953 481 994 "},"à":{"ha":757,"x_min":0,"x_max":0,"o":"m 376 721 b 674 425 600 721 674 593 l 674 0 l 497 0 l 497 75 b 292 -18 464 21 386 -18 b 42 189 186 -18 42 39 b 421 421 42 421 328 421 b 497 421 449 421 481 421 b 351 567 496 522 460 567 b 204 515 288 567 231 533 l 83 607 b 376 721 161 678 258 721 m 497 310 b 486 310 493 310 489 310 b 222 206 360 310 222 311 b 344 110 222 153 257 110 b 497 190 435 110 482 161 m 454 815 l 311 815 l 176 1010 l 363 1010 "},"ā":{"ha":757,"x_min":0,"x_max":0,"o":"m 376 721 b 674 425 600 721 674 593 l 674 0 l 497 0 l 497 75 b 292 -18 464 21 386 -18 b 42 189 186 -18 42 39 b 421 421 42 421 328 421 b 497 421 449 421 481 421 b 351 567 496 522 460 567 b 204 515 288 567 231 533 l 83 607 b 376 721 161 678 258 721 m 497 310 b 486 310 493 310 489 310 b 222 206 360 310 222 311 b 344 110 222 153 257 110 b 497 190 435 110 482 161 m 588 968 l 588 832 l 183 832 l 183 968 "},"å":{"ha":757,"x_min":0,"x_max":0,"o":"m 376 721 b 674 425 600 721 674 593 l 674 0 l 497 0 l 497 75 b 292 -18 464 21 386 -18 b 42 189 186 -18 42 39 b 421 421 42 421 328 421 b 497 421 449 421 481 421 b 351 567 496 522 460 567 b 204 515 288 567 231 533 l 83 607 b 376 721 161 678 258 721 m 497 310 b 486 310 493 310 489 310 b 222 206 360 310 222 311 b 344 110 222 153 257 110 b 497 190 435 110 482 161 m 386 1083 b 543 926 472 1083 543 1013 b 386 768 543 839 472 768 b 228 926 299 768 228 839 b 386 1083 228 1013 299 1083 m 386 856 b 457 926 425 856 457 888 b 386 997 457 965 425 997 b 314 926 346 997 314 965 b 386 856 314 888 346 856 "},"ů":{"ha":806,"x_min":0,"x_max":0,"o":"m 722 704 l 722 0 l 546 0 l 546 86 b 342 -18 507 28 444 -18 b 83 275 164 -18 83 126 l 83 704 l 260 704 l 260 313 b 396 154 260 222 297 154 b 546 313 501 154 546 231 l 546 704 m 403 1083 b 560 926 489 1083 560 1013 b 403 768 560 839 489 768 b 244 926 315 768 244 839 b 403 1083 244 1013 315 1083 m 403 856 b 474 926 442 856 474 888 b 403 997 474 965 442 997 b 331 926 363 997 331 965 b 403 856 331 888 363 856 "},"ã":{"ha":757,"x_min":0,"x_max":0,"o":"m 376 721 b 674 425 600 721 674 593 l 674 0 l 497 0 l 497 75 b 292 -18 464 21 386 -18 b 42 189 186 -18 42 39 b 421 421 42 421 328 421 b 497 421 449 421 481 421 b 351 567 496 522 460 567 b 204 515 288 567 231 533 l 83 607 b 376 721 161 678 258 721 m 497 310 b 486 310 493 310 489 310 b 222 206 360 310 222 311 b 344 110 222 153 257 110 b 497 190 435 110 482 161 m 604 944 b 486 800 603 854 558 800 b 310 840 415 800 367 840 b 269 788 276 840 269 808 l 167 806 b 283 950 168 900 214 950 b 458 910 354 950 404 910 b 500 963 494 910 500 943 "},"ǽ":{"ha":1226,"x_min":0,"x_max":0,"o":"m 831 721 b 1181 283 1043 721 1213 561 l 658 283 b 860 139 683 189 761 139 b 1017 208 939 139 994 182 l 1157 125 b 860 -18 1100 46 993 -18 b 578 100 735 -18 639 26 b 304 -18 536 33 435 -18 b 42 189 190 -18 42 39 b 419 421 42 421 328 421 b 497 421 449 421 479 421 b 351 567 494 522 460 567 b 204 515 288 567 229 533 l 83 607 b 376 721 161 678 258 721 b 600 629 490 721 560 686 b 831 721 658 688 739 721 m 497 310 b 485 310 493 310 489 310 b 222 206 360 310 222 311 b 344 110 222 153 257 110 b 497 190 435 110 481 161 m 1008 419 b 835 564 990 511 928 564 b 658 419 747 564 681 510 m 821 1010 l 686 815 l 544 815 l 635 1010 "},"ć":{"ha":751,"x_min":0,"x_max":0,"o":"m 414 151 b 576 242 489 151 544 188 l 731 154 b 414 -18 665 50 550 -18 b 42 351 203 -18 42 146 b 414 721 42 558 203 721 b 731 550 550 721 665 653 l 576 461 b 414 551 544 515 489 551 b 222 351 296 551 222 461 b 414 151 222 242 296 151 m 579 1010 l 444 815 l 303 815 l 393 1010 "},"č":{"ha":751,"x_min":0,"x_max":0,"o":"m 414 151 b 576 242 489 151 544 188 l 731 154 b 414 -18 665 50 550 -18 b 42 351 203 -18 42 146 b 414 721 42 558 203 721 b 731 550 550 721 665 653 l 576 461 b 414 551 544 515 489 551 b 222 351 296 551 222 461 b 414 151 222 242 296 151 m 638 1010 l 485 815 l 315 815 l 163 1010 l 318 1010 l 400 897 l 482 1010 "},"ĉ":{"ha":751,"x_min":0,"x_max":0,"o":"m 414 151 b 576 242 489 151 544 188 l 731 154 b 414 -18 665 50 550 -18 b 42 351 203 -18 42 146 b 414 721 42 558 203 721 b 731 550 550 721 665 653 l 576 461 b 414 551 544 515 489 551 b 222 351 296 551 222 461 b 414 151 222 242 296 151 m 496 815 l 414 926 l 332 815 l 175 815 l 329 1010 l 499 1010 l 651 815 "},"ċ":{"ha":751,"x_min":0,"x_max":0,"o":"m 414 151 b 576 242 489 151 544 188 l 731 154 b 414 -18 665 50 550 -18 b 42 351 203 -18 42 146 b 414 721 42 558 203 721 b 731 550 550 721 665 653 l 576 461 b 414 551 544 515 489 551 b 222 351 296 551 222 461 b 414 151 222 242 296 151 m 413 994 b 508 900 465 994 508 953 b 413 804 508 847 465 804 b 318 900 361 804 318 847 b 413 994 318 953 361 994 "},"é":{"ha":797,"x_min":0,"x_max":0,"o":"m 401 721 b 751 283 614 721 783 561 l 229 283 b 429 139 254 189 332 139 b 586 208 510 139 565 182 l 728 125 b 429 -18 671 46 563 -18 b 42 351 196 -18 42 138 b 401 721 42 572 207 721 m 579 419 b 404 564 561 511 499 564 b 229 419 318 564 250 510 m 592 1010 l 457 815 l 315 815 l 406 1010 "},"ĕ":{"ha":797,"x_min":0,"x_max":0,"o":"m 401 721 b 751 283 614 721 783 561 l 229 283 b 429 139 254 189 332 139 b 586 208 510 139 565 182 l 728 125 b 429 -18 671 46 563 -18 b 42 351 196 -18 42 138 b 401 721 42 572 207 721 m 579 419 b 404 564 561 511 499 564 b 229 419 318 564 250 510 m 633 1004 b 413 796 633 878 553 796 b 192 1004 272 796 192 878 l 315 1004 b 413 907 315 960 340 907 b 510 1004 485 907 510 960 "},"ě":{"ha":797,"x_min":0,"x_max":0,"o":"m 401 721 b 751 283 614 721 783 561 l 229 283 b 429 139 254 189 332 139 b 586 208 510 139 565 182 l 728 125 b 429 -18 671 46 563 -18 b 42 351 196 -18 42 138 b 401 721 42 572 207 721 m 579 419 b 404 564 561 511 499 564 b 229 419 318 564 250 510 m 650 1010 l 497 815 l 328 815 l 175 1010 l 331 1010 l 413 897 l 494 1010 "},"ê":{"ha":797,"x_min":0,"x_max":0,"o":"m 401 721 b 751 283 614 721 783 561 l 229 283 b 429 139 254 189 332 139 b 586 208 510 139 565 182 l 728 125 b 429 -18 671 46 563 -18 b 42 351 196 -18 42 138 b 401 721 42 572 207 721 m 579 419 b 404 564 561 511 499 564 b 229 419 318 564 250 510 m 494 815 l 413 926 l 331 815 l 174 815 l 328 1010 l 497 1010 l 650 815 "},"ë":{"ha":797,"x_min":0,"x_max":0,"o":"m 401 721 b 751 283 614 721 783 561 l 229 283 b 429 139 254 189 332 139 b 586 208 510 139 565 182 l 728 125 b 429 -18 671 46 563 -18 b 42 351 196 -18 42 138 b 401 721 42 572 207 721 m 579 419 b 404 564 561 511 499 564 b 229 419 318 564 250 510 m 265 994 b 360 900 318 994 360 953 b 265 804 360 847 318 804 b 169 900 213 804 169 847 b 265 994 169 953 213 994 m 558 994 b 654 900 611 994 654 953 b 558 804 654 847 611 804 b 464 900 507 804 464 847 b 558 994 464 953 507 994 "},"ė":{"ha":797,"x_min":0,"x_max":0,"o":"m 401 721 b 751 283 614 721 783 561 l 229 283 b 429 139 254 189 332 139 b 586 208 510 139 565 182 l 728 125 b 429 -18 671 46 563 -18 b 42 351 196 -18 42 138 b 401 721 42 572 207 721 m 579 419 b 404 564 561 511 499 564 b 229 419 318 564 250 510 m 411 994 b 507 900 464 994 507 953 b 411 804 507 847 464 804 b 317 900 360 804 317 847 b 411 994 317 953 360 994 "},"è":{"ha":797,"x_min":0,"x_max":0,"o":"m 401 721 b 751 283 614 721 783 561 l 229 283 b 429 139 254 189 332 139 b 586 208 510 139 565 182 l 728 125 b 429 -18 671 46 563 -18 b 42 351 196 -18 42 138 b 401 721 42 572 207 721 m 579 419 b 404 564 561 511 499 564 b 229 419 318 564 250 510 m 496 815 l 353 815 l 218 1010 l 404 1010 "},"ē":{"ha":797,"x_min":0,"x_max":0,"o":"m 401 721 b 751 283 614 721 783 561 l 229 283 b 429 139 254 189 332 139 b 586 208 510 139 565 182 l 728 125 b 429 -18 671 46 563 -18 b 42 351 196 -18 42 138 b 401 721 42 572 207 721 m 579 419 b 404 564 561 511 499 564 b 229 419 318 564 250 510 m 614 968 l 614 832 l 210 832 l 210 968 "},"ğ":{"ha":865,"x_min":0,"x_max":0,"o":"m 782 704 l 782 76 b 400 -281 782 -121 650 -281 b 67 -139 256 -281 125 -221 l 210 -54 b 394 -124 236 -89 300 -124 b 606 89 531 -124 606 -49 l 606 140 b 383 32 563 79 493 32 b 42 376 171 32 42 194 b 383 721 42 558 171 721 b 606 613 493 721 563 674 l 606 704 m 410 189 b 597 376 528 189 597 274 b 410 564 597 479 528 564 b 222 376 296 564 222 482 b 410 189 222 271 296 189 m 646 1004 b 425 796 646 878 565 796 b 204 1004 285 796 204 878 l 328 1004 b 425 907 328 960 353 907 b 522 1004 497 907 522 960 "},"ĝ":{"ha":865,"x_min":0,"x_max":0,"o":"m 782 704 l 782 76 b 400 -281 782 -121 650 -281 b 67 -139 256 -281 125 -221 l 210 -54 b 394 -124 236 -89 300 -124 b 606 89 531 -124 606 -49 l 606 140 b 383 32 563 79 493 32 b 42 376 171 32 42 194 b 383 721 42 558 171 721 b 606 613 493 721 563 674 l 606 704 m 410 189 b 597 376 528 189 597 274 b 410 564 597 479 528 564 b 222 376 296 564 222 482 b 410 189 222 271 296 189 m 508 815 l 426 926 l 344 815 l 188 815 l 342 1010 l 511 1010 l 664 815 "},"ģ":{"ha":865,"x_min":0,"x_max":0,"o":"m 782 704 l 782 76 b 400 -281 782 -121 650 -281 b 67 -139 256 -281 125 -221 l 210 -54 b 394 -124 236 -89 300 -124 b 606 89 531 -124 606 -49 l 606 140 b 383 32 563 79 493 32 b 42 376 171 32 42 194 b 383 721 42 558 171 721 b 606 613 493 721 563 674 l 606 704 m 410 189 b 597 376 528 189 597 274 b 410 564 597 479 528 564 b 222 376 296 564 222 482 b 410 189 222 271 296 189 m 353 815 l 465 1022 l 603 1022 l 526 815 "},"ġ":{"ha":865,"x_min":0,"x_max":0,"o":"m 782 704 l 782 76 b 400 -281 782 -121 650 -281 b 67 -139 256 -281 125 -221 l 210 -54 b 394 -124 236 -89 300 -124 b 606 89 531 -124 606 -49 l 606 140 b 383 32 563 79 493 32 b 42 376 171 32 42 194 b 383 721 42 558 171 721 b 606 613 493 721 563 674 l 606 704 m 410 189 b 597 376 528 189 597 274 b 410 564 597 479 528 564 b 222 376 296 564 222 482 b 410 189 222 271 296 189 m 425 994 b 521 900 478 994 521 953 b 425 804 521 847 478 804 b 331 900 374 804 331 847 b 425 994 331 953 374 994 "},"ĥ":{"ha":806,"x_min":0,"x_max":0,"o":"m 464 721 b 722 428 642 721 722 576 l 722 0 l 546 0 l 546 392 b 408 550 546 482 508 550 b 258 392 304 550 258 472 l 258 0 l 83 0 l 83 972 l 258 972 l 258 618 b 464 721 297 675 361 721 m 440 1093 l 358 1204 l 276 1093 l 119 1093 l 274 1288 l 443 1288 l 596 1093 "},"ı":{"ha":343,"x_min":0,"x_max":0,"o":"m 83 704 l 260 704 l 260 0 l 83 0 "},"í":{"ha":343,"x_min":0,"x_max":0,"o":"m 83 704 l 260 704 l 260 0 l 83 0 m 379 1010 l 244 815 l 103 815 l 193 1010 "},"ĭ":{"ha":343,"x_min":0,"x_max":0,"o":"m 83 704 l 260 704 l 260 0 l 83 0 m 394 1004 b 174 796 394 878 314 796 b -47 1004 33 796 -47 878 l 76 1004 b 174 907 76 960 101 907 b 271 1004 246 907 271 960 "},"î":{"ha":343,"x_min":0,"x_max":0,"o":"m 83 704 l 260 704 l 260 0 l 83 0 m 254 815 l 172 926 l 90 815 l -67 815 l 88 1010 l 257 1010 l 410 815 "},"ï":{"ha":343,"x_min":0,"x_max":0,"o":"m 83 704 l 260 704 l 260 0 l 83 0 m 25 994 b 119 900 78 994 119 953 b 25 804 119 847 78 804 b -71 900 -28 804 -71 847 b 25 994 -71 953 -28 994 m 318 994 b 414 900 371 994 414 953 b 318 804 414 847 371 804 b 224 900 267 804 224 847 b 318 994 224 953 267 994 "},"ì":{"ha":343,"x_min":0,"x_max":0,"o":"m 83 704 l 260 704 l 260 0 l 83 0 m 242 815 l 99 815 l -36 1010 l 150 1010 "},"ī":{"ha":343,"x_min":0,"x_max":0,"o":"m 83 704 l 260 704 l 260 0 l 83 0 m 374 968 l 374 832 l -31 832 l -31 968 "},"ĩ":{"ha":343,"x_min":0,"x_max":0,"o":"m 83 704 l 260 704 l 260 0 l 83 0 m 390 944 b 272 800 389 854 344 800 b 96 840 201 800 153 840 b 56 788 63 840 56 808 l -47 806 b 69 950 -46 900 0 950 b 244 910 140 950 190 910 b 286 963 281 910 286 943 "},"ĳ":{"ha":689,"x_min":0,"x_max":0,"o":"m 83 704 l 260 704 l 260 0 l 83 0 m 171 807 b 78 901 119 807 78 849 b 171 994 78 953 119 994 b 265 901 224 994 265 953 b 171 807 265 849 224 807 m 429 704 l 604 704 l 604 13 b 349 -257 604 -144 525 -257 b 288 -251 328 -257 304 -254 l 288 -90 b 308 -92 293 -90 300 -92 b 429 36 388 -92 429 -56 m 517 807 b 422 901 465 807 422 849 b 517 994 422 953 465 994 b 611 901 568 994 611 953 b 517 807 611 849 568 807 "},"ķ":{"ha":744,"x_min":0,"x_max":0,"o":"m 508 0 l 258 335 l 258 0 l 83 0 l 83 972 l 258 972 l 258 406 l 478 704 l 681 704 l 429 379 l 724 0 m 472 -114 l 360 -321 l 222 -321 l 299 -114 "},"ĸ":{"ha":744,"x_min":0,"x_max":0,"o":"m 508 0 l 258 335 l 258 0 l 83 0 l 83 704 l 258 704 l 258 406 l 478 704 l 681 704 l 429 379 l 724 0 "},"ĺ":{"ha":343,"x_min":0,"x_max":0,"o":"m 260 972 l 260 0 l 83 0 l 83 972 m 382 1288 l 247 1093 l 106 1093 l 196 1288 "},"ļ":{"ha":343,"x_min":0,"x_max":0,"o":"m 260 972 l 260 0 l 83 0 l 83 972 m 253 -114 l 140 -321 l 3 -321 l 79 -114 "},"ń":{"ha":806,"x_min":0,"x_max":0,"o":"m 464 721 b 722 428 642 721 722 576 l 722 0 l 546 0 l 546 392 b 408 550 546 482 508 550 b 258 392 304 550 258 472 l 258 0 l 83 0 l 83 704 l 258 704 l 258 618 b 464 721 297 675 361 721 m 596 1010 l 461 815 l 319 815 l 410 1010 "},"ň":{"ha":806,"x_min":0,"x_max":0,"o":"m 464 721 b 722 428 642 721 722 576 l 722 0 l 546 0 l 546 392 b 408 550 546 482 508 550 b 258 392 304 550 258 472 l 258 0 l 83 0 l 83 704 l 258 704 l 258 618 b 464 721 297 675 361 721 m 640 1010 l 488 815 l 318 815 l 165 1010 l 321 1010 l 403 897 l 485 1010 "},"ņ":{"ha":806,"x_min":0,"x_max":0,"o":"m 464 721 b 722 428 642 721 722 576 l 722 0 l 546 0 l 546 392 b 408 550 546 482 508 550 b 258 392 304 550 258 472 l 258 0 l 83 0 l 83 704 l 258 704 l 258 618 b 464 721 297 675 361 721 m 500 -114 l 388 -321 l 250 -321 l 326 -114 "},"ñ":{"ha":806,"x_min":0,"x_max":0,"o":"m 464 721 b 722 428 642 721 722 576 l 722 0 l 546 0 l 546 392 b 408 550 546 482 508 550 b 258 392 304 550 258 472 l 258 0 l 83 0 l 83 704 l 258 704 l 258 618 b 464 721 297 675 361 721 m 621 944 b 503 800 619 854 575 800 b 326 840 432 800 383 840 b 286 788 293 840 286 808 l 183 806 b 300 950 185 900 231 950 b 475 910 371 950 421 910 b 517 963 511 910 517 943 "},"ó":{"ha":826,"x_min":0,"x_max":0,"o":"m 413 721 b 785 351 625 721 785 558 b 413 -18 785 146 625 -18 b 42 351 201 -18 42 146 b 413 721 42 558 201 721 m 413 151 b 604 351 531 151 604 242 b 413 551 604 461 531 551 b 222 351 296 551 222 461 b 413 151 222 242 296 151 m 607 1010 l 472 815 l 331 815 l 421 1010 "},"ŏ":{"ha":826,"x_min":0,"x_max":0,"o":"m 413 721 b 785 351 625 721 785 558 b 413 -18 785 146 625 -18 b 42 351 201 -18 42 146 b 413 721 42 558 201 721 m 413 151 b 604 351 531 151 604 242 b 413 551 604 461 531 551 b 222 351 296 551 222 461 b 413 151 222 242 296 151 m 633 1004 b 413 796 633 878 553 796 b 192 1004 272 796 192 878 l 315 1004 b 413 907 315 960 340 907 b 510 1004 485 907 510 960 "},"ô":{"ha":826,"x_min":0,"x_max":0,"o":"m 413 721 b 785 351 625 721 785 558 b 413 -18 785 146 625 -18 b 42 351 201 -18 42 146 b 413 721 42 558 201 721 m 413 151 b 604 351 531 151 604 242 b 413 551 604 461 531 551 b 222 351 296 551 222 461 b 413 151 222 242 296 151 m 496 815 l 414 926 l 332 815 l 175 815 l 329 1010 l 499 1010 l 651 815 "},"ö":{"ha":826,"x_min":0,"x_max":0,"o":"m 413 721 b 785 351 625 721 785 558 b 413 -18 785 146 625 -18 b 42 351 201 -18 42 146 b 413 721 42 558 201 721 m 413 151 b 604 351 531 151 604 242 b 413 551 604 461 531 551 b 222 351 296 551 222 461 b 413 151 222 242 296 151 m 267 994 b 361 900 319 994 361 953 b 267 804 361 847 319 804 b 171 900 214 804 171 847 b 267 994 171 953 214 994 m 560 994 b 656 900 613 994 656 953 b 560 804 656 847 613 804 b 465 900 508 804 465 847 b 560 994 465 953 508 994 "},"ò":{"ha":826,"x_min":0,"x_max":0,"o":"m 413 721 b 785 351 625 721 785 558 b 413 -18 785 146 625 -18 b 42 351 201 -18 42 146 b 413 721 42 558 201 721 m 413 151 b 604 351 531 151 604 242 b 413 551 604 461 531 551 b 222 351 296 551 222 461 b 413 151 222 242 296 151 m 482 815 l 339 815 l 204 1010 l 390 1010 "},"ő":{"ha":826,"x_min":0,"x_max":0,"o":"m 413 721 b 785 351 625 721 785 558 b 413 -18 785 146 625 -18 b 42 351 201 -18 42 146 b 413 721 42 558 201 721 m 413 151 b 604 351 531 151 604 242 b 413 551 604 461 531 551 b 222 351 296 551 222 461 b 413 151 222 242 296 151 m 472 1010 l 338 815 l 194 815 l 286 1010 m 743 1010 l 608 815 l 467 815 l 557 1010 "},"ō":{"ha":826,"x_min":0,"x_max":0,"o":"m 413 721 b 785 351 625 721 785 558 b 413 -18 785 146 625 -18 b 42 351 201 -18 42 146 b 413 721 42 558 201 721 m 413 151 b 604 351 531 151 604 242 b 413 551 604 461 531 551 b 222 351 296 551 222 461 b 413 151 222 242 296 151 m 615 968 l 615 832 l 211 832 l 211 968 "},"ǿ":{"ha":828,"x_min":0,"x_max":0,"o":"m 714 575 b 786 351 760 513 786 436 b 414 -18 786 146 626 -18 b 165 75 317 -18 231 17 l 94 10 l 44 65 l 115 129 b 42 351 69 190 42 268 b 414 721 42 558 203 721 b 663 629 511 721 599 686 l 733 693 l 783 639 l 714 575 m 222 351 b 247 250 222 314 232 279 l 535 511 b 414 551 503 536 463 551 b 222 351 296 551 222 461 m 414 151 b 606 351 532 151 606 242 b 581 454 606 389 597 424 l 294 192 b 414 151 325 167 367 151 m 607 1010 l 472 815 l 331 815 l 421 1010 "},"õ":{"ha":826,"x_min":0,"x_max":0,"o":"m 413 721 b 785 351 625 721 785 558 b 413 -18 785 146 625 -18 b 42 351 201 -18 42 146 b 413 721 42 558 201 721 m 413 151 b 604 351 531 151 604 242 b 413 551 604 461 531 551 b 222 351 296 551 222 461 b 413 151 222 242 296 151 m 632 944 b 514 800 631 854 586 800 b 338 840 443 800 394 840 b 297 788 304 840 297 808 l 194 806 b 311 950 196 900 242 950 b 486 910 382 950 432 910 b 528 963 522 910 528 943 "},"ŕ":{"ha":536,"x_min":0,"x_max":0,"o":"m 260 589 b 494 721 313 676 410 721 l 494 529 b 260 290 286 554 260 421 l 260 0 l 83 0 l 83 704 l 260 704 l 260 589 m 454 1010 l 319 815 l 178 815 l 268 1010 "},"ŗ":{"ha":536,"x_min":0,"x_max":0,"o":"m 260 589 b 494 721 313 676 410 721 l 494 529 b 260 290 286 554 260 421 l 260 0 l 83 0 l 83 704 l 260 704 l 260 589 m 251 -114 l 139 -321 l 1 -321 l 78 -114 "},"ś":{"ha":657,"x_min":0,"x_max":0,"o":"m 374 421 b 622 217 546 383 622 336 b 324 -18 622 78 521 -18 b 21 154 189 -18 53 36 l 190 207 b 326 131 196 178 224 131 b 442 204 400 131 442 157 b 257 286 442 271 340 268 b 51 500 121 314 51 379 b 328 721 51 633 163 721 b 597 539 449 721 568 661 l 438 500 b 328 572 429 536 394 572 b 224 500 276 572 224 553 b 374 421 224 438 318 433 m 515 1010 l 381 815 l 239 815 l 329 1010 "},"š":{"ha":657,"x_min":0,"x_max":0,"o":"m 374 421 b 622 217 546 383 622 336 b 324 -18 622 78 521 -18 b 21 154 189 -18 53 36 l 190 207 b 326 131 196 178 224 131 b 442 204 400 131 442 157 b 257 286 442 271 340 268 b 51 500 121 314 51 379 b 328 721 51 633 163 721 b 597 539 449 721 568 661 l 438 500 b 328 572 429 536 394 572 b 224 500 276 572 224 553 b 374 421 224 438 318 433 m 558 1010 l 406 815 l 236 815 l 83 1010 l 239 1010 l 321 897 l 403 1010 "},"ŝ":{"ha":657,"x_min":0,"x_max":0,"o":"m 374 421 b 622 217 546 383 622 336 b 324 -18 622 78 521 -18 b 21 154 189 -18 53 36 l 190 207 b 326 131 196 178 224 131 b 442 204 400 131 442 157 b 257 286 442 271 340 268 b 51 500 121 314 51 379 b 328 721 51 633 163 721 b 597 539 449 721 568 661 l 438 500 b 328 572 429 536 394 572 b 224 500 276 572 224 553 b 374 421 224 438 318 433 m 404 815 l 322 926 l 240 815 l 83 815 l 238 1010 l 407 1010 l 560 815 "},"ș":{"ha":657,"x_min":0,"x_max":0,"o":"m 374 421 b 622 217 546 383 622 336 b 324 -18 622 78 521 -18 b 21 154 189 -18 53 36 l 190 207 b 326 131 196 178 224 131 b 442 204 400 131 442 157 b 257 286 442 271 340 268 b 51 500 121 314 51 379 b 328 721 51 633 163 721 b 597 539 449 721 568 661 l 438 500 b 328 572 429 536 394 572 b 224 500 276 572 224 553 b 374 421 224 438 318 433 m 404 -114 l 292 -321 l 154 -321 l 231 -114 "},"ţ":{"ha":531,"x_min":0,"x_max":0,"o":"m 318 543 l 318 286 b 426 158 318 206 329 158 b 468 161 439 158 456 160 l 468 0 b 394 -10 450 -6 431 -10 b 142 257 214 -10 142 111 l 142 543 l 42 543 l 42 704 l 142 704 l 142 851 l 318 851 l 318 704 l 468 704 l 468 543 m 379 -114 l 267 -321 l 129 -321 l 206 -114 "},"ú":{"ha":806,"x_min":0,"x_max":0,"o":"m 722 704 l 722 0 l 546 0 l 546 86 b 342 -18 507 28 444 -18 b 83 275 164 -18 83 126 l 83 704 l 260 704 l 260 313 b 396 154 260 222 297 154 b 546 313 501 154 546 231 l 546 704 m 596 1010 l 461 815 l 319 815 l 410 1010 "},"ŭ":{"ha":806,"x_min":0,"x_max":0,"o":"m 722 704 l 722 0 l 546 0 l 546 86 b 342 -18 507 28 444 -18 b 83 275 164 -18 83 126 l 83 704 l 260 704 l 260 313 b 396 154 260 222 297 154 b 546 313 501 154 546 231 l 546 704 m 624 1004 b 403 796 624 878 543 796 b 182 1004 263 796 182 878 l 306 1004 b 403 907 306 960 331 907 b 500 1004 475 907 500 960 "},"û":{"ha":806,"x_min":0,"x_max":0,"o":"m 722 704 l 722 0 l 546 0 l 546 86 b 342 -18 507 28 444 -18 b 83 275 164 -18 83 126 l 83 704 l 260 704 l 260 313 b 396 154 260 222 297 154 b 546 313 501 154 546 231 l 546 704 m 485 815 l 403 926 l 321 815 l 164 815 l 318 1010 l 488 1010 l 640 815 "},"ü":{"ha":806,"x_min":0,"x_max":0,"o":"m 722 704 l 722 0 l 546 0 l 546 86 b 342 -18 507 28 444 -18 b 83 275 164 -18 83 126 l 83 704 l 260 704 l 260 313 b 396 154 260 222 297 154 b 546 313 501 154 546 231 l 546 704 m 257 994 b 351 900 310 994 351 953 b 257 804 351 847 310 804 b 161 900 204 804 161 847 b 257 994 161 953 204 994 m 550 994 b 646 900 603 994 646 953 b 550 804 646 847 603 804 b 456 900 499 804 456 847 b 550 994 456 953 499 994 "},"ű":{"ha":806,"x_min":0,"x_max":0,"o":"m 722 704 l 722 0 l 546 0 l 546 86 b 342 -18 507 28 444 -18 b 83 275 164 -18 83 126 l 83 704 l 260 704 l 260 313 b 396 154 260 222 297 154 b 546 313 501 154 546 231 l 546 704 m 461 1010 l 326 815 l 183 815 l 275 1010 m 732 1010 l 597 815 l 456 815 l 546 1010 "},"ù":{"ha":806,"x_min":0,"x_max":0,"o":"m 722 704 l 722 0 l 546 0 l 546 86 b 342 -18 507 28 444 -18 b 83 275 164 -18 83 126 l 83 704 l 260 704 l 260 313 b 396 154 260 222 297 154 b 546 313 501 154 546 231 l 546 704 m 500 815 l 357 815 l 222 1010 l 408 1010 "},"ū":{"ha":806,"x_min":0,"x_max":0,"o":"m 722 704 l 722 0 l 546 0 l 546 86 b 342 -18 507 28 444 -18 b 83 275 164 -18 83 126 l 83 704 l 260 704 l 260 313 b 396 154 260 222 297 154 b 546 313 501 154 546 231 l 546 704 m 606 968 l 606 832 l 201 832 l 201 968 "},"ũ":{"ha":806,"x_min":0,"x_max":0,"o":"m 722 704 l 722 0 l 546 0 l 546 86 b 342 -18 507 28 444 -18 b 83 275 164 -18 83 126 l 83 704 l 260 704 l 260 313 b 396 154 260 222 297 154 b 546 313 501 154 546 231 l 546 704 m 622 944 b 504 800 621 854 576 800 b 328 840 433 800 385 840 b 288 788 294 840 288 808 l 185 806 b 301 950 186 900 232 950 b 476 910 372 950 422 910 b 518 963 513 910 518 943 "},"ẃ":{"ha":1110,"x_min":0,"x_max":0,"o":"m 1089 704 l 853 0 l 696 0 l 554 415 l 414 0 l 257 0 l 21 704 l 211 704 l 346 257 l 497 704 l 613 704 l 763 257 l 899 704 m 763 1010 l 628 815 l 486 815 l 576 1010 "},"ŵ":{"ha":1110,"x_min":0,"x_max":0,"o":"m 1089 704 l 853 0 l 696 0 l 554 415 l 414 0 l 257 0 l 21 704 l 211 704 l 346 257 l 497 704 l 613 704 l 763 257 l 899 704 m 638 815 l 556 926 l 474 815 l 317 815 l 471 1010 l 640 1010 l 793 815 "},"ẅ":{"ha":1110,"x_min":0,"x_max":0,"o":"m 1089 704 l 853 0 l 696 0 l 554 415 l 414 0 l 257 0 l 21 704 l 211 704 l 346 257 l 497 704 l 613 704 l 763 257 l 899 704 m 408 994 b 503 900 461 994 503 953 b 408 804 503 847 461 804 b 313 900 356 804 313 847 b 408 994 313 953 356 994 m 701 994 b 797 900 754 994 797 953 b 701 804 797 847 754 804 b 607 900 650 804 607 847 b 701 994 607 953 650 994 "},"ẁ":{"ha":1110,"x_min":0,"x_max":0,"o":"m 1089 704 l 853 0 l 696 0 l 554 415 l 414 0 l 257 0 l 21 704 l 211 704 l 346 257 l 497 704 l 613 704 l 763 257 l 899 704 m 624 815 l 481 815 l 346 1010 l 532 1010 "},"ý":{"ha":769,"x_min":0,"x_max":0,"o":"m 749 704 l 364 -268 l 183 -268 l 313 42 l 21 704 l 211 704 l 393 239 l 558 704 m 592 1010 l 457 815 l 315 815 l 406 1010 "},"ŷ":{"ha":769,"x_min":0,"x_max":0,"o":"m 749 704 l 364 -268 l 183 -268 l 313 42 l 21 704 l 211 704 l 393 239 l 558 704 m 468 815 l 386 926 l 304 815 l 147 815 l 301 1010 l 471 1010 l 624 815 "},"ÿ":{"ha":769,"x_min":0,"x_max":0,"o":"m 749 704 l 364 -268 l 183 -268 l 313 42 l 21 704 l 211 704 l 393 239 l 558 704 m 239 994 b 333 900 292 994 333 953 b 239 804 333 847 292 804 b 143 900 186 804 143 847 b 239 994 143 953 186 994 m 532 994 b 628 900 585 994 628 953 b 532 804 628 847 585 804 b 438 900 481 804 438 847 b 532 994 438 953 481 994 "},"ỳ":{"ha":769,"x_min":0,"x_max":0,"o":"m 749 704 l 364 -268 l 183 -268 l 313 42 l 21 704 l 211 704 l 393 239 l 558 704 m 468 815 l 325 815 l 190 1010 l 376 1010 "},"ź":{"ha":683,"x_min":0,"x_max":0,"o":"m 621 161 l 621 0 l 63 0 l 63 124 l 385 543 l 75 543 l 75 704 l 608 704 l 608 581 l 285 161 m 535 1010 l 400 815 l 258 815 l 349 1010 "},"ž":{"ha":683,"x_min":0,"x_max":0,"o":"m 621 161 l 621 0 l 63 0 l 63 124 l 385 543 l 75 543 l 75 704 l 608 704 l 608 581 l 285 161 m 579 1010 l 426 815 l 257 815 l 104 1010 l 260 1010 l 342 897 l 424 1010 "},"ż":{"ha":683,"x_min":0,"x_max":0,"o":"m 621 161 l 621 0 l 63 0 l 63 124 l 385 543 l 75 543 l 75 704 l 608 704 l 608 581 l 285 161 m 342 994 b 438 900 394 994 438 953 b 342 804 438 847 394 804 b 247 900 290 804 247 847 b 342 994 247 953 290 994 "},"Ð":{"ha":1018,"x_min":0,"x_max":0,"o":"m 444 972 b 963 486 769 972 963 772 b 444 0 963 200 769 0 l 143 0 l 143 436 l 21 436 l 21 535 l 143 535 l 143 972 l 444 972 m 444 175 b 774 486 622 175 774 269 b 444 797 774 703 622 797 l 332 797 l 332 535 l 553 535 l 553 436 l 332 436 l 332 175 l 444 175 "},"ĵ":{"ha":343,"x_min":0,"x_max":0,"o":"m 83 704 l 258 704 l 258 13 b 3 -257 258 -144 179 -257 b -58 -251 -18 -257 -42 -254 l -58 -90 b -37 -92 -53 -90 -46 -92 b 83 36 42 -92 83 -56 m 254 815 l 172 926 l 90 815 l -67 815 l 88 1010 l 257 1010 l 410 815 "},"ř":{"ha":536,"x_min":0,"x_max":0,"o":"m 260 589 b 494 721 313 676 410 721 l 494 529 b 260 290 286 554 260 421 l 260 0 l 83 0 l 83 704 l 260 704 l 260 589 m 506 1010 l 353 815 l 183 815 l 31 1010 l 186 1010 l 268 897 l 350 1010 "},"…":{"ha":988,"x_min":0,"x_max":0,"o":"m 165 188 b 267 85 221 188 267 142 b 165 -18 267 28 221 -18 b 63 85 108 -18 63 28 b 165 188 63 142 108 188 m 494 188 b 596 85 550 188 596 142 b 494 -18 596 28 550 -18 b 392 85 438 -18 392 28 b 494 188 392 142 438 188 m 824 188 b 925 85 879 188 925 142 b 824 -18 925 28 879 -18 b 721 85 767 -18 721 28 b 824 188 721 142 767 188 "},"A":{"ha":972,"x_min":0,"x_max":0,"o":"m 686 193 l 286 193 l 221 0 l 21 0 l 371 972 l 601 972 l 951 0 l 751 0 m 629 361 l 486 782 l 343 361 "}}}
